<?xml version="1.0" encoding="UTF-8" standalone="no"?>
<svg
   xmlns:dc="http://purl.org/dc/elements/1.1/"
   xmlns:cc="http://creativecommons.org/ns#"
   xmlns:rdf="http://www.w3.org/1999/02/22-rdf-syntax-ns#"
   xmlns:svg="http://www.w3.org/2000/svg"
   xmlns="http://www.w3.org/2000/svg"
   width="1000"
   height="1000"
   viewBox="0 0 1000 1000"
   version="1.1"
   id="svg8">
  <defs
     id="defs2" />
  <metadata
     id="metadata5">
    <rdf:RDF>
      <cc:Work
         rdf:about="">
        <dc:format>image/svg+xml</dc:format>
        <dc:type
           rdf:resource="http://purl.org/dc/dcmitype/StillImage" />
        <dc:title></dc:title>
      </cc:Work>
    </rdf:RDF>
  </metadata>
  <g
     id="layer1"
     transform="translate(0,-122.51965)">
    <path
       style="fill:#1a1a1a;fill-opacity:1;stroke:none;stroke-width:0.7320444px;stroke-linecap:butt;stroke-linejoin:miter;stroke-opacity:1"
       d="m 37.753277,348.13619 c -0.128253,-0.006 -0.206436,0.0196 -0.235937,0.0743 -0.236085,0.43805 2.594511,2.73022 5.694793,6.60555 3.100281,3.87535 6.471419,9.33415 10.245767,17.11869 3.774347,7.78455 7.953735,17.89867 10.177174,23.79431 2.223511,5.8956 2.49327,7.58031 5.56039,9.23205 3.066753,1.65174 8.92999,3.26949 13.075265,4.81977 4.145201,1.55027 6.572001,3.03353 5.830587,3.47149 -0.741415,0.43797 -4.650239,-0.16881 -8.121081,-0.87645 -3.470842,-0.70764 -6.503703,-1.51679 -4.380847,1.31396 2.122856,2.83076 9.401793,9.30054 20.758878,16.74838 11.357154,7.44783 26.790334,15.87367 40.102334,21.70397 13.31195,5.8303 24.49905,9.06497 31.13906,11.05359 6.63993,1.98862 8.72933,2.72983 8.35848,3.13406 -0.37078,0.40423 -3.20116,0.47064 -10.17717,-1.31539 -6.97602,-1.78603 -18.09849,-5.42544 -28.61262,-8.99757 -10.51421,-3.5721 -20.42228,-7.07648 -32.85767,-13.14249 -12.435382,-6.06598 -27.39815,-14.69316 -38.418054,-21.63533 -11.01983,-6.94216 -18.095918,-12.1996 -23.016502,-17.35602 -4.920509,-5.15642 -7.684563,-10.2103 -9.706689,-14.08614 -2.022199,-3.87583 -3.302252,-6.5729 -3.032567,-3.60732 0.269685,2.96558 2.090133,11.59331 5.527521,21.19784 3.437315,9.60452 8.491276,20.18669 13.58001,28.40961 5.088806,8.22291 10.21136,14.08584 17.827843,19.88245 7.61641,5.79658 17.725357,11.52569 25.71306,14.69377 7.987628,3.16811 13.850938,3.77482 20.726008,4.65107 6.87499,0.87623 14.76094,2.02193 23.79283,3.36997 9.03189,1.34804 19.20738,2.89774 27.46455,3.74029 8.25717,0.84256 14.59609,0.97709 17.93077,1.31397 3.33475,0.33686 3.67105,0.87596 0.13301,1.01084 -3.53811,0.13489 -10.95292,-0.13387 -19.8496,-1.04373 -8.89661,-0.90986 -19.27604,-2.46074 -28.81276,-3.64021 -9.53678,-1.17946 -18.23332,-1.98784 -26.25352,-2.56072 -8.020209,-0.57288 -15.367885,-0.91024 -20.860414,-1.34828 -5.492529,-0.43804 -9.131449,-0.97651 -9.906904,-0.74062 -0.775527,0.23589 1.314021,1.24619 3.908971,2.62792 2.594951,1.38175 5.695013,3.13479 5.155789,3.4043 -0.539224,0.26949 -4.718099,-0.94395 -10.581775,-2.29193 -5.863603,-1.34798 -13.412884,-2.83091 -19.84953,-5.02137 -6.436721,-2.19045 -11.761538,-5.08831 -15.771824,-7.58209 -4.010286,-2.49379 -6.705967,-4.58449 -5.391727,-2.19185 1.314239,2.39265 6.638838,9.2677 14.356416,15.46874 7.717505,6.20103 17.827623,11.72732 27.634676,16.37805 9.806979,4.65074 19.308914,8.42528 27.869142,11.15511 8.56024,2.72982 16.17584,4.41519 25.88173,5.5947 9.70596,1.17952 21.50088,1.85382 33.3638,1.5842 11.86293,-0.26965 23.78925,-1.48292 31.44073,-2.52785 7.65147,-1.04493 11.02502,-1.92226 12.47191,-2.02313 1.44688,-0.10087 0.97508,0.57311 -5.05711,1.98882 -6.03219,1.41571 -17.6255,3.57183 -29.48763,4.68393 -11.86212,1.11212 -23.99407,1.18027 -34.07007,0.20303 -10.07609,-0.97723 -18.09878,-2.99979 -23.79292,-2.93246 -5.69413,0.0674 -9.06534,2.22366 -14.65947,3.74028 -5.594073,1.51663 -13.412377,2.39409 -22.005626,2.89959 -8.59325,0.50551 -17.962906,0.63963 -24.163176,0.20159 -6.200343,-0.43803 -9.233861,-1.44844 -6.908669,0.27023 2.325119,1.71869 10.008438,6.16645 18.265313,9.5366 8.256949,3.37015 17.086136,5.66148 24.736586,7.21178 7.650377,1.55029 14.119382,2.35918 23.488302,2.12322 9.36892,-0.23596 21.63535,-1.51701 33.97001,-3.40429 12.33465,-1.8873 24.73548,-4.37981 35.9245,-7.07596 11.189,-2.69616 21.16054,-5.59403 27.43021,-7.14458 6.26974,-1.55055 8.83182,-1.75228 2.56362,0.47183 -6.26828,2.2241 -21.36698,6.87504 -35.55423,10.51456 -14.18723,3.6395 -27.4674,6.26718 -36.73376,8.86173 -9.26637,2.59456 -14.52428,5.15657 -20.89329,7.54921 -6.369,2.39264 -13.85108,4.6174 -21.568143,5.83062 -7.717068,1.21322 -15.673805,1.4155 -20.794602,1.9545 -5.12087,0.539 -7.412096,1.4153 -4.21072,2.12321 3.201377,0.70793 11.894039,1.24629 17.48898,1.85299 5.595011,0.60671 8.088428,1.28157 4.179243,1.3826 -3.909191,0.10102 -14.224722,-0.37181 -20.558736,-0.60766 -6.333941,-0.23584 -8.691856,-0.2357 -3.771713,0.87645 4.920071,1.11216 17.118493,3.33734 28.812831,5.15721 11.69426,1.81985 22.88034,3.23355 30.46418,3.43573 7.58382,0.20222 11.55905,-0.80766 16.24369,-3.63877 4.68406,-2.83111 10.07535,-7.48005 14.18761,-10.14282 4.11226,-2.66276 6.94395,-3.33685 5.25871,-1.44979 -1.68524,1.88706 -7.88909,6.33638 -11.96578,9.63811 -4.07668,3.30174 -6.02999,5.45867 -4.58098,5.62759 1.449,0.16893 6.30143,-1.65164 12.30032,-3.47149 5.99889,-1.81984 13.1421,-3.63886 21.06202,-6.08226 7.91991,-2.4434 16.61279,-5.51002 23.74144,-8.3413 7.12865,-2.83129 12.68941,-5.42582 15.75608,-6.82431 3.06668,-1.3985 3.63863,-1.60036 -1.46694,0.96081 -5.10565,2.56115 -15.88946,7.88598 -27.65041,12.46905 -11.76096,4.58313 -24.50255,8.42626 -33.46527,11.72845 -8.96359,3.30218 -14.15291,6.06568 -21.33082,10.48024 -7.17792,4.41455 -16.34619,10.48144 -24.60212,14.45787 -8.25599,3.97644 -15.603961,5.86351 -21.332277,7.11027 -5.728247,1.24677 -9.839921,1.85334 -5.155715,2.42633 4.684132,0.573 18.163052,1.11176 29.756432,1.31396 11.59339,0.2022 21.29825,0.0681 29.58916,-0.90934 8.29092,-0.97742 15.16372,-2.79768 20.59022,-4.51665 5.42642,-1.71897 9.40215,-3.33523 12.80646,-4.41371 3.4043,-1.07854 6.23496,-1.6188 4.48238,-0.54046 -1.75267,1.07834 -8.08873,3.77579 -15.23282,7.28041 -7.1441,3.50463 -15.09776,7.81842 -23.58985,14.01894 -8.49214,6.20052 -17.52595,14.28976 -23.7257,19.68084 -6.19975,5.39108 -9.56913,8.08676 -9.09763,8.42423 0.47144,0.33741 4.78515,-1.68516 10.91918,-3.30278 6.13394,-1.61762 14.08534,-2.82996 25.27412,-5.76199 11.18872,-2.93203 25.61036,-7.58154 36.0589,-12.06443 10.44854,-4.4829 16.91776,-8.79621 27.09568,-16.04207 10.17783,-7.24585 24.0587,-17.41976 33.42954,-24.29615 9.37075,-6.87641 14.22164,-10.4479 16.91849,-12.30179 2.69686,-1.85388 3.23513,-1.98841 -6.20093,5.39168 -9.43605,7.38013 -28.84745,22.2756 -42.59722,34.64343 -13.7497,12.36784 -21.83923,22.21075 -28.51115,29.4219 -6.67201,7.21115 -11.92779,11.79344 -4.98567,9.56948 6.9422,-2.22396 26.08143,-11.25501 40.75577,-18.88732 14.67427,-7.63231 24.87897,-13.86372 32.49875,-18.83012 7.61977,-4.96641 12.6506,-8.66393 17.65918,-12.76074 5.00835,-4.0968 9.98962,-8.58814 10.12132,-8.27267 0.1317,0.31546 -4.58597,5.43724 -13.29261,12.24458 -8.70665,6.80734 -21.40315,15.30077 -30.32121,22.44031 -8.91806,7.13953 -14.0587,12.92634 -20.3643,17.79354 -6.30562,4.8672 -13.77679,8.81378 -21.17922,12.54055 -7.4025,3.72678 -14.73503,7.23268 -12.68355,8.02532 2.05148,0.79265 13.48528,-1.1276 23.6413,-3.72455 10.15609,-2.59697 19.02825,-5.86806 26.74401,-9.99699 7.71559,-4.12893 14.27032,-9.11351 20.63735,-12.9223 6.36711,-3.80878 12.54168,-6.44052 19.87815,-11.3424 7.33655,-4.90188 15.83186,-12.07204 16.06633,-11.9186 0.23447,0.15345 -7.79137,7.63039 -15.03832,12.83937 -7.24709,5.209 -13.71565,8.15 -20.55448,13.30834 -6.83876,5.15835 -14.04787,12.53633 -20.21271,18.58278 -6.16491,6.04645 -11.28797,10.76318 -8.86176,11.16797 2.42629,0.40479 12.40163,-3.50363 23.38824,-8.49143 10.98659,-4.98781 22.98224,-11.05318 31.87973,-17.25452 8.89741,-6.20135 14.69425,-12.53856 15.5659,-13.0181 0.87164,-0.47952 -3.17957,4.89734 -9.58664,10.91919 -6.407,6.02185 -15.16942,12.68948 -25.34272,18.96596 -10.17329,6.27647 -21.75987,12.16283 -29.70782,15.84618 -7.94796,3.68336 -12.26168,5.1648 -10.71187,5.43458 1.55033,0.26979 8.96338,-0.67283 18.55133,-2.2905 9.58802,-1.61766 21.34897,-3.90941 32.28572,-7.80228 10.93667,-3.89287 21.0432,-9.38445 27.63321,-13.09244 6.59002,-3.70799 9.65523,-5.62782 6.1166,-3.04971 -3.53863,2.57811 -13.68257,9.65533 -22.91644,14.37352 -9.23385,4.7182 -17.55683,7.07694 -16.27656,8.00388 1.28028,0.92694 12.1646,0.42056 23.5055,-2.17469 11.34092,-2.59525 23.13056,-7.27631 30.09245,-10.26006 6.96189,-2.98375 9.08496,-4.26515 6.81006,-2.9339 -2.2749,1.33126 -8.94785,5.27512 -16.1765,8.61154 -7.22864,3.33641 -15.01218,6.06495 -15.14702,7.00875 -0.13484,0.9438 7.37777,0.10134 15.65177,-1.80295 8.274,-1.90429 17.30114,-4.86764 23.94297,-8.45854 3.34076,-1.80619 6.07554,-3.76873 9.02758,-5.16434 1.88128,-2.50301 4.5454,-4.45318 7.58779,-5.40599 6.09141,-2.45143 12.77717,-1.59577 18.94743,-0.0987 6.39433,-2.34243 12.24702,2.3852 17.2488,5.71053 1.03994,-3.73468 6.22427,-2.40171 8.51001,-0.44896 1.93919,0.78455 3.54251,4.63521 5.52035,3.0297 3.62281,-0.80906 6.43869,3.05979 8.79742,5.28301 -1.65464,-4.34483 -4.29074,-8.13997 -7.46349,-11.49395 -2.4238,-1.8296 -2.39013,-6.3084 -5.74911,-6.70565 -9.43517,1.3448 -17.54923,-6.70506 -19.6122,-15.38008 -1.76291,-3.86164 1.08254,-8.65152 -1.93736,-11.95005 -0.39545,4.20769 0.44149,9.98346 1.35831,14.68664 0.38389,4.53576 3.20166,8.68877 2.99538,13.23113 -1.11886,4.04909 -5.85833,2.09256 -7.76941,-0.30597 -9.97923,-11.52203 -14.26703,-27.30711 -13.99178,-42.36135 -0.34502,-7.84949 4.352,-17.72498 13.18968,-17.94081 11.16749,1.17903 18.63668,11.05714 24.65935,19.53072 3.91864,-1.23635 7.65821,2.06866 9.41219,5.45316 1.94724,2.42194 2.04761,6.34824 4.88984,7.84231 -1.73048,-6.43683 -2.52504,-13.16172 -1.97308,-19.8181 0.0892,-3.82274 1.1712,-8.31653 3.48007,-11.62836 -2.37051,1.14321 -4.86531,2.02751 -7.45485,2.57217 0.77121,-6.22395 3.98224,-11.73418 7.56063,-16.74695 -4.20707,1.96255 -10.66026,5.25859 -16.37379,5.97789 -3.81885,1.73529 -3.79279,-3.5745 -2.25191,-5.87924 -6.00072,2.09594 -13.85965,3.53092 -20.71313,2.11607 -3.91335,0.47259 -4.06218,-4.56863 -1.74146,-6.60699 -1.37485,-0.18904 -4.53882,-0.58779 -5.73197,-2.52069 -0.37247,-2.54924 2.97912,-5.08051 5.21441,-6.65417 -5.57034,0.37032 -12.49379,-0.12673 -16.9843,-4.43373 3.11273,-3.91156 7.62835,-6.43431 12.37902,-7.79942 -5.43134,-0.53862 -12.44125,-1.67051 -16.96432,-5.93784 1.55185,-1.90773 3.44477,-3.59993 5.75627,-4.51523 -5.21998,-1.27328 -11.04427,-0.53363 -15.83045,-3.3514 -3.19494,-1.07583 -1.82887,-4.76478 0.0858,-6.51405 2.54985,-1.57181 -1.88663,-0.52354 -2.9396,-0.90362 -3.48805,-0.60133 -8.34055,0.0181 -10.59466,-3.24558 -7.08239,1.92934 -13.78096,8.19911 -21.85263,7.32902 -3.37275,0.55971 -2.14972,-3.26606 -1.27536,-5.26585 -2.05412,0.56375 -4.17602,1.01255 -6.31821,0.91648 -3.14969,0.7268 -6.03761,-2.26893 -4.97131,-5.37453 -2.77437,0.004 -8.89734,2.56702 -10.87057,-1.96879 -2.90006,1.08977 -8.75891,2.36317 -10.73192,-1.76149 -5.60856,1.74758 -12.13217,4.72001 -18.58558,4.3265 -2.71698,0.65232 -3.28688,-1.46191 -2.60506,-3.63162 -2.53353,0.9786 -6.66445,1.88488 -9.53516,-0.0372 0.43,-4.01543 2.5989,-7.59795 5.37591,-10.43879 -1.49286,0.43993 -3.00643,0.816 -4.54241,1.07091 -6.19595,0.13703 -12.96567,1.56521 -18.79575,-1.24247 -4.19447,-1.64654 -1.40787,-6.9809 1.17808,-9.04047 -1.14595,-0.5693 -4.27133,-0.64909 -6.16374,-1.19958 -5.3358,-1.92658 -12.32382,-2.03311 -15.74613,-7.22179 -2.02455,-2.33211 0.21097,-4.18853 2.42204,-5.1958 1.019,-0.88484 5.47144,-1.1917 2.29196,-1.71 -5.57233,-2.44908 -12.70793,-4.78658 -15.05552,-11.01928 -1.76101,-3.40368 2.46142,-5.10121 5.21435,-5.56755 -7.8328,-3.62371 -14.93714,-8.88693 -20.42433,-15.57309 2.53251,-1.54265 5.46288,-2.5417 8.45717,-2.30908 -4.74241,-2.71268 -9.11967,-6.16798 -12.49908,-10.48739 -2.2651,-3.94408 -6.29851,-8.04587 -6.26528,-12.77076 -3.07458,-1.70125 -6.09449,-3.44589 -9.16914,-5.29731 -12.53648,-7.54881 -26.01605,-16.85018 -38.55247,-25.88177 -12.53641,-9.03161 -24.128984,-17.79345 -36.126092,-26.488 -11.99711,-8.69456 -24.399407,-17.32179 -32.251388,-22.34308 -6.870529,-4.39363 -10.257479,-6.02758 -11.155113,-6.07369 z m 924.493473,0 c -0.89767,0.0461 -4.28458,1.68005 -11.15514,6.07368 -7.852,5.0213 -20.25428,13.64853 -32.25137,22.34308 -11.99708,8.69456 -23.58969,17.45639 -36.12614,26.488 -12.53641,9.0316 -26.01595,18.33296 -38.55243,25.88178 -3.07466,1.85141 -6.09455,3.59606 -9.16914,5.29731 0.0332,4.72488 -4.00018,8.82666 -6.26527,12.77074 -3.37941,4.31943 -7.75668,7.77471 -12.49909,10.4874 2.99428,-0.23261 5.9246,0.76644 8.45711,2.30909 -5.48711,6.68614 -12.59152,11.94938 -20.42432,15.57309 2.75293,0.46633 6.97539,2.16386 5.21439,5.56755 -2.34759,6.23269 -9.4832,8.5702 -15.05553,11.01927 -3.17948,0.51831 1.27293,0.82516 2.29193,1.71 2.21107,1.00727 4.44659,2.86369 2.42204,5.1958 -3.4223,5.18868 -10.4103,5.29521 -15.7461,7.22179 -1.89241,0.55049 -5.01781,0.63029 -6.16376,1.19959 2.58595,2.05957 5.3726,7.39393 1.17813,9.04046 -5.83007,2.80768 -12.59986,1.3795 -18.79581,1.24247 -1.53598,-0.25492 -3.04954,-0.63097 -4.54239,-1.0709 2.777,2.84084 4.94595,6.42334 5.37595,10.43878 -2.87072,1.92203 -7.00163,1.01574 -9.53517,0.0372 0.68183,2.16971 0.11194,4.28396 -2.60505,3.63162 -6.45341,0.39352 -12.97706,-2.57893 -18.58562,-4.32649 -1.97302,4.12465 -7.83183,2.85124 -10.7319,1.76148 -1.97322,4.53582 -8.09619,1.97245 -10.87057,1.96879 1.0663,3.1056 -1.82162,6.10132 -4.97132,5.37453 -2.14218,0.0961 -4.26406,-0.35273 -6.31817,-0.91648 0.87435,1.99978 2.09738,5.82556 -1.27536,5.26585 -8.07167,0.8701 -14.77028,-5.39967 -21.85267,-7.32902 -2.25411,3.26367 -7.10659,2.64425 -10.59463,3.24559 -1.05297,0.38007 -5.48947,-0.6682 -2.93961,0.90361 1.91466,1.74927 3.28071,5.43822 0.0858,6.51406 -4.78618,2.81777 -10.61047,2.07811 -15.83047,3.35139 2.3115,0.9153 4.20442,2.60751 5.75627,4.51522 -4.52308,4.26735 -11.53293,5.39924 -16.96426,5.93785 4.75067,1.36511 9.26626,3.88786 12.37898,7.79942 -4.4905,4.307 -11.41394,4.80405 -16.98428,4.43374 2.23529,1.57365 5.58685,4.10491 5.21438,6.65417 -1.19316,1.9329 -4.35711,2.33165 -5.73197,2.52068 2.32073,2.03836 2.1719,7.07958 -1.74147,6.607 -6.85346,1.41485 -14.71241,-0.0201 -20.71313,-2.11607 1.54088,2.30474 1.56696,7.61451 -2.25189,5.87923 -5.71354,-0.7193 -12.16672,-4.01533 -16.37378,-5.97789 3.57838,5.01277 6.78944,10.523 7.56065,16.74695 -2.58953,-0.54465 -5.08434,-1.42896 -7.45485,-2.57216 2.30888,3.31182 3.39092,7.80561 3.48008,11.62834 0.55196,6.65639 -0.24261,13.38129 -1.97309,19.81811 2.84223,-1.49408 2.94258,-5.42037 4.88983,-7.84231 1.75396,-3.3845 5.49357,-6.6895 9.4122,-5.45316 6.02268,-8.47358 13.49183,-18.3517 24.65931,-19.53072 8.83768,0.21583 13.53468,10.09133 13.18967,17.94081 0.27525,15.05423 -4.01254,30.83932 -13.99177,42.36135 -1.91107,2.39854 -6.65054,4.35505 -7.76939,0.30597 -0.20629,-4.54235 2.6115,-8.69537 2.99538,-13.23113 0.91681,-4.70319 1.75374,-10.47895 1.35828,-14.68664 -3.01988,3.29852 -0.17443,8.08841 -1.93734,11.95005 -2.06297,8.67502 -10.17704,16.72487 -19.61222,15.38009 -3.35897,0.39723 -3.32532,4.87604 -5.74912,6.70563 -3.17275,3.35399 -5.80878,7.14914 -7.46342,11.49396 2.35873,-2.22322 5.17459,-6.09207 8.7974,-5.28301 1.97782,1.60552 3.58118,-2.24515 5.52036,-3.0297 2.28574,-1.95275 7.47007,-3.28571 8.51002,0.44895 5.00176,-3.32531 10.85446,-8.05294 17.24879,-5.71052 6.17026,-1.49713 12.85596,-2.35279 18.94737,0.0987 3.04253,0.95279 5.70654,2.90297 7.58782,5.40598 2.95204,1.3956 5.68683,3.35815 9.02759,5.16433 6.64184,3.5909 15.66899,6.55427 23.943,8.45855 8.274,1.90429 15.78658,2.74675 15.65174,1.80295 -0.13485,-0.9438 -7.91839,-3.67234 -15.14704,-7.00876 -7.22864,-3.3364 -13.90155,-7.28027 -16.17645,-8.61152 -2.27491,-1.33126 -0.15188,-0.0498 6.81,2.93389 6.9619,2.98374 18.75156,7.66481 30.09246,10.26006 11.34091,2.59525 22.22522,3.10163 23.50549,2.17468 1.28028,-0.92693 -7.04268,-3.28567 -16.27655,-8.00386 -9.23386,-4.7182 -19.37778,-11.79541 -22.91642,-14.37353 -3.53862,-2.5781 -0.47344,-0.65828 6.11657,3.04971 6.59002,3.70799 16.69658,9.19957 27.63325,13.09244 10.93675,3.89287 22.69772,6.18461 32.28574,7.80228 9.58795,1.61767 17.00099,2.56029 18.55132,2.2905 1.54981,-0.26978 -2.76392,-1.75121 -10.71187,-5.43458 -7.94796,-3.68335 -19.53456,-9.5697 -29.70785,-15.84618 -10.1733,-6.27647 -18.93575,-12.9441 -25.34275,-18.96595 -6.40707,-6.02185 -10.45828,-11.39872 -9.58664,-10.91919 0.87165,0.47952 6.66854,6.81675 15.56595,13.01809 8.8975,6.20135 20.89308,12.26671 31.87968,17.25452 10.9866,4.9878 20.96197,8.89621 23.38825,8.49143 2.42622,-0.40479 -2.69683,-5.12152 -8.86174,-11.16796 -6.16483,-6.04646 -13.37396,-13.42445 -20.21272,-18.58278 -6.83883,-5.15835 -13.30735,-8.09935 -20.55443,-13.30835 -7.24717,-5.20898 -15.27284,-12.68591 -15.03837,-12.83936 0.23447,-0.15345 8.72983,7.01671 16.06637,11.91859 7.33648,4.90188 13.51105,7.53362 19.87816,11.3424 6.36703,3.80879 12.92161,8.79338 20.63735,12.92231 7.71568,4.12892 16.58785,7.40002 26.74394,9.99697 10.15602,2.59696 21.58983,4.51721 23.64131,3.72457 2.05149,-0.79265 -5.28102,-4.29856 -12.68353,-8.02532 -7.40243,-3.72679 -14.87363,-7.67336 -21.17924,-12.54055 -6.30561,-4.86721 -11.44622,-10.65401 -20.36427,-17.79355 -8.91806,-7.13954 -21.61459,-15.63296 -30.32123,-22.4403 -8.70664,-6.80734 -13.42431,-11.92913 -13.29261,-12.24459 0.1317,-0.31547 5.11279,4.17586 10.12137,8.27267 5.0085,4.09681 10.03936,7.79433 17.65914,12.76074 7.61978,4.9664 17.82451,11.19782 32.49877,18.83012 14.67434,7.63231 33.81352,16.66336 40.75572,18.88733 6.94212,2.22395 1.68637,-2.35834 -4.98563,-9.56949 -6.67192,-7.21114 -14.76142,-17.05405 -28.51113,-29.42189 -13.74976,-12.36784 -33.16121,-27.2633 -42.59726,-34.64343 -9.43605,-7.38011 -8.89778,-7.24557 -6.20093,-5.39168 2.69685,1.85389 7.54777,5.42537 16.91852,12.30177 9.37082,6.87641 23.25171,17.05031 33.42955,24.29616 10.1779,7.24585 16.64711,11.55917 27.09565,16.04206 10.44855,4.48291 24.87019,9.13241 36.05891,12.06444 11.18878,2.93204 19.14017,4.14436 25.27412,5.76199 6.13402,1.61763 10.44773,3.64018 10.91919,3.30278 0.47145,-0.33746 -2.8979,-3.03315 -9.09766,-8.42423 -6.19976,-5.39108 -15.23352,-13.48032 -23.72568,-19.68084 -8.49208,-6.20053 -16.44575,-10.51432 -23.58983,-14.01893 -7.1441,-3.50463 -13.48017,-6.20209 -15.23283,-7.28042 -1.75259,-1.07833 1.07805,-0.53809 4.48235,0.54046 3.4043,1.07848 7.38006,2.69474 12.80649,4.41371 5.4265,1.71897 12.29926,3.53923 20.59017,4.51665 8.29092,0.97742 17.99579,1.11155 29.58918,0.90934 11.59336,-0.20221 25.07232,-0.74097 29.75645,-1.31395 4.68422,-0.573 0.57246,-1.17956 -5.15581,-2.42633 -5.72836,-1.24677 -13.07623,-3.13384 -21.33217,-7.11027 -8.25592,-3.97643 -17.42421,-10.04333 -24.60213,-14.45788 -7.17791,-4.41455 -12.36721,-7.17806 -21.3308,-10.48025 -8.96272,-3.30219 -21.70434,-7.14532 -33.46529,-11.72844 -11.76096,-4.58306 -22.54476,-9.9079 -27.65041,-12.46906 -5.10557,-2.56116 -4.53363,-2.35929 -1.46695,-0.9608 3.06668,1.39848 8.62747,3.99302 15.75611,6.82431 7.12865,2.83128 15.82149,5.89791 23.74141,8.3413 7.91991,2.44339 15.06311,4.26241 21.062,6.08226 5.99888,1.81986 10.85134,3.64042 12.30035,3.47149 1.44901,-0.16893 -0.50432,-2.32586 -4.58101,-5.62759 -4.07667,-3.30173 -10.28053,-7.75104 -11.96577,-9.63811 -1.68524,-1.88705 1.14645,-1.21298 5.2587,1.44979 4.11227,2.66278 9.50359,7.31171 14.18765,10.14283 4.68465,2.83111 8.65984,3.84099 16.24368,3.63877 7.58383,-0.2022 18.76994,-1.61589 30.46422,-3.43575 11.69427,-1.81986 23.89268,-4.04504 28.81278,-5.1572 4.9201,-1.11215 2.56216,-1.11228 -3.77182,-0.87645 -6.33398,0.23585 -16.64947,0.70868 -20.55868,0.60766 -3.9092,-0.10103 -1.41582,-0.77589 4.17921,-1.3826 5.59495,-0.6067 14.28766,-1.14506 17.48904,-1.85298 3.20138,-0.70792 0.9102,-1.58421 -4.21069,-2.12321 -5.1208,-0.53901 -13.07756,-0.74128 -20.79465,-1.95451 -7.71708,-1.21322 -15.19911,-3.43798 -21.56811,-5.83061 -6.36901,-2.39265 -11.62693,-4.95466 -20.89329,-7.54921 -9.26637,-2.59456 -22.54652,-5.22224 -36.73377,-8.86175 -14.18723,-3.63951 -29.28592,-8.29045 -35.55418,-10.51456 -6.26821,-2.2241 -3.70616,-2.02237 2.56358,-0.47182 6.26966,1.55055 16.24121,4.44842 27.43022,7.14458 11.189,2.69616 23.58985,5.18867 35.92451,7.07595 12.33465,1.8873 24.60107,3.16834 33.97,3.40429 9.36892,0.23597 15.8379,-0.57291 23.48833,-2.12321 7.65042,-1.55029 16.47955,-3.84164 24.73647,-7.21178 8.25684,-3.37015 15.94024,-7.81791 18.26538,-9.53659 2.32522,-1.71869 -0.70835,-0.70827 -6.90865,-0.27023 -6.2003,0.43803 -15.56998,0.3039 -24.16322,-0.2016 -8.59325,-0.50551 -16.41156,-1.38295 -22.00563,-2.89958 -5.59415,-1.51662 -8.96536,-3.67294 -14.65945,-3.74029 -5.69412,-0.0674 -13.7168,1.95522 -23.79286,2.93247 -10.07602,0.97723 -22.20798,0.90908 -34.07009,-0.20304 -11.86212,-1.1121 -23.45548,-3.26822 -29.48767,-4.68393 -6.03219,-1.41572 -6.50399,-2.08969 -5.05711,-1.98882 1.44689,0.10087 4.82045,0.9782 12.47192,2.02313 7.65147,1.04492 19.57781,2.2582 31.44073,2.52784 11.86293,0.26964 23.65783,-0.40467 33.36379,-1.58419 9.70589,-1.17952 17.32154,-2.86488 25.88172,-5.5947 8.56026,-2.72983 18.06221,-6.50437 27.86916,-11.1551 9.80705,-4.65073 19.91717,-10.17704 27.6347,-16.37807 7.71752,-6.20102 13.04219,-13.07608 14.35643,-15.46872 1.31424,-2.39266 -1.38143,-0.30195 -5.39177,2.19184 -4.01026,2.49378 -9.33511,5.39164 -15.77182,7.58209 -6.43662,2.19046 -13.9859,3.67339 -19.84953,5.02138 -5.86363,1.34796 -10.04258,2.56141 -10.5818,2.29192 -0.53922,-0.26952 2.56084,-2.02256 5.15581,-3.4043 2.59496,-1.38173 4.68448,-2.39203 3.90903,-2.62792 -0.77546,-0.2359 -4.41439,0.30259 -9.90696,0.74062 -5.49248,0.43804 -12.84018,0.7754 -20.86043,1.34828 -8.02016,0.57288 -16.71668,1.38126 -26.25346,2.56072 -9.53671,1.17946 -19.9162,2.73036 -28.81281,3.64021 -8.89668,0.90986 -16.31144,1.17862 -19.84956,1.04374 -3.53804,-0.13489 -3.20178,-0.67398 0.13297,-1.01086 3.33468,-0.33686 9.67363,-0.4714 17.93079,-1.31395 8.25718,-0.84256 18.43265,-2.39225 27.46454,-3.7403 9.03189,-1.34803 16.91788,-2.49374 23.79287,-3.36997 6.87504,-0.87625 12.7384,-1.48296 20.72594,-4.65106 7.98771,-3.16809 18.09668,-8.8972 25.71307,-14.69379 7.61647,-5.79659 12.73904,-11.65952 17.82791,-19.88244 5.0887,-8.22291 10.14266,-18.8051 13.58001,-28.40961 3.43735,-9.60453 5.25783,-18.23225 5.52749,-21.19783 0.26965,-2.96559 -1.01037,-0.26852 -3.03261,3.60732 -2.02206,3.87582 -4.78615,8.92971 -9.70669,14.08613 -4.92054,5.15643 -11.99674,10.41387 -23.01652,17.35603 -11.01988,6.94217 -25.98264,15.56933 -38.41799,21.63534 -12.43539,6.06601 -22.34344,9.57039 -32.85764,13.14248 -10.51414,3.57215 -21.63664,7.21155 -28.61265,8.99758 -6.97602,1.78603 -9.80635,1.71961 -10.17713,1.31539 -0.37086,-0.40422 1.71853,-1.14544 8.35846,-3.13406 6.64001,-1.98863 17.82712,-5.22329 31.13905,-11.05359 13.312,-5.8303 28.7451,-14.25614 40.10235,-21.70398 11.35708,-7.44782 18.636,-13.9176 20.75885,-16.74837 2.12285,-2.83076 -0.91002,-2.02159 -4.38088,-1.31397 -3.47086,0.70765 -7.37962,1.31443 -8.12104,0.87646 -0.74142,-0.43796 1.68539,-1.92121 5.83056,-3.47149 4.14526,-1.55028 10.00854,-3.16802 13.07527,-4.81977 3.06717,-1.65175 3.33691,-3.33645 5.56037,-9.23205 2.22347,-5.89564 6.40285,-16.00976 10.17723,-23.79431 3.77429,-7.78454 7.14541,-13.24334 10.24574,-17.11868 3.10024,-3.87534 5.93091,-6.16752 5.69476,-6.60555 -0.0291,-0.0548 -0.10766,-0.081 -0.23588,-0.0743 z M 171.7603,412.93214 c -0.56236,-0.0736 0.45826,2.4409 1.63568,5.64474 1.44923,3.94319 3.13359,8.92912 7.21174,13.7487 4.07815,4.81959 10.54898,9.47082 17.92937,13.31263 7.3804,3.84183 15.67044,6.87387 20.92762,8.72735 5.25717,1.85348 7.48076,2.52814 8.28981,2.99966 0.80906,0.47152 0.20285,0.74109 -4.31935,-0.50757 -4.52213,-1.24865 -12.9353,-4.00772 -20.7203,-7.07452 -7.785,-3.0668 -14.92785,-6.43735 -21.02768,-9.36931 -6.09983,-2.93196 -11.15504,-5.42491 -13.0424,-5.76199 -1.88735,-0.33708 -0.60642,1.48271 1.34829,4.78546 1.9547,3.30274 4.58208,8.08732 10.31157,12.36755 5.72956,4.28022 14.55839,8.05408 23.7585,10.17712 9.20019,2.12306 18.7724,2.59464 22.98509,3.03256 4.21263,0.43792 3.06581,0.84295 -1.31825,0.80925 -4.38407,-0.0337 -11.9947,-0.50555 -18.93741,-1.41548 -6.94241,-0.90993 -13.20974,-2.25782 -17.92792,-3.13406 -4.71809,-0.87625 -7.88587,-1.27997 -8.56001,-0.74062 -0.67406,0.53933 1.14594,2.02152 4.78544,4.75113 3.63952,2.72963 9.09939,6.7064 15.63742,9.09909 6.53797,2.39269 14.15394,3.20152 21.46663,3.36997 7.31268,0.16847 14.32274,-0.30269 17.65918,-0.30311 3.33592,-4.1e-4 2.99977,0.47136 -1.48986,0.87646 -4.48963,0.40509 -13.10205,0.74059 -21.72972,0.5047 -8.62765,-0.23589 -17.25355,-1.04382 -21.06201,-0.5047 -3.80846,0.53911 -2.79795,2.42543 -0.0688,4.75113 2.73015,2.32571 7.17908,5.08911 12.84078,6.60556 5.66171,1.51645 12.53598,1.78663 18.70287,1.51698 6.16688,-0.26961 11.62778,-1.07909 15.97489,-2.15752 4.3471,-1.07842 7.58185,-2.42719 9.26636,-2.79807 1.68451,-0.37087 1.8195,0.23667 -0.17013,1.181 -1.98969,0.94431 -6.09712,2.22337 -11.65839,3.33567 -5.56134,1.11228 -12.56942,2.05558 -19.98394,2.89814 -7.41443,0.84257 -15.23216,1.58342 -16.91711,2.96535 -1.68501,1.38194 2.76311,3.40445 8.05389,5.05569 5.29085,1.65124 11.42479,2.93112 17.65918,2.93104 6.23438,-9e-5 12.57045,-1.27943 18.73719,-3.53726 6.16666,-2.25785 12.16643,-5.49351 15.30002,-6.84148 3.13359,-1.34796 3.40342,-0.80951 2.08888,0.13441 -1.31459,0.9439 -4.21129,2.29132 -7.64927,3.8418 -3.43805,1.55048 -7.41393,3.30261 -12.73933,4.71825 -5.32533,1.41565 -11.99682,2.49318 -16.37804,4.34652 -4.3812,1.85333 -6.47053,4.48136 -6.33533,5.86349 0.13514,1.38216 2.49357,1.51787 6.06507,1.72003 3.57149,0.20216 8.359,0.47203 13.31267,-0.53903 4.9536,-1.01106 10.07586,-3.30415 14.92829,-6.26956 4.85235,-2.96542 9.43751,-6.60474 11.99864,-8.42423 2.56113,-1.81949 3.09992,-1.81922 2.76376,-1.28108 -0.33615,0.53814 -1.55054,1.61811 -5.05711,4.18067 -3.50664,2.56251 -9.29952,6.60308 -14.11901,10.95063 -4.81948,4.34756 -8.66096,8.99834 -9.23349,10.85199 -0.57254,1.85365 2.12336,0.90954 5.93065,-0.70774 3.80744,-1.61728 8.72919,-3.90987 12.80653,-6.53836 4.07735,-2.62847 7.31313,-5.5947 10.1099,-8.32413 2.79685,-2.72944 5.15572,-5.22389 6.53694,-6.20095 1.38122,-0.97704 1.78516,-0.43697 0.74061,0.84358 -1.04448,1.28053 -3.53724,3.30184 -6.2338,5.86349 -2.69655,2.56166 -5.59436,5.66095 -9.60522,8.93038 -4.01088,3.26943 -9.13153,6.70548 -10.74905,8.35704 -1.61745,1.65154 0.26975,1.51739 3.63877,0.84355 3.36909,-0.67383 8.22379,-1.88679 12.26746,-3.74028 4.04374,-1.8535 7.27901,-4.34804 10.31157,-7.3133 3.03256,-2.96525 5.86478,-6.4035 7.17887,-7.71792 1.31409,-1.31442 1.11153,-0.50597 -0.17013,1.31539 -1.28166,1.82136 -3.63731,4.64953 -6.40107,7.41338 -2.76383,2.76386 -5.93073,5.45811 -6.46973,7.00875 -0.53908,1.55066 1.54981,1.95558 4.04337,1.61852 2.49356,-0.33708 5.39224,-1.41573 8.28981,-3.84181 2.89766,-2.42608 5.79582,-6.20206 7.58216,-8.29126 1.78618,-2.0892 2.46135,-2.49309 1.8558,-1.24819 -0.60554,1.24489 -2.49583,4.14646 -4.75397,6.84289 -2.2582,2.69644 -4.88632,5.18969 -5.79633,6.60556 -0.91,1.41586 -0.10146,1.75252 1.98736,1.65138 2.08889,-0.10112 5.46113,-0.64084 8.62875,-1.9888 3.16749,-1.34798 6.13365,-3.5054 9.16622,-5.426 3.03264,-1.92061 6.13381,-3.60504 7.31335,-4.04341 1.17947,-0.43836 0.43791,0.36989 -1.58561,1.82011 -2.02345,1.45021 -5.32299,3.53851 -8.5587,6.13373 -3.23563,2.59523 -6.40224,5.69435 -6.60406,7.17747 -0.2019,1.48312 2.56018,1.34884 5.95928,0.682 3.3991,-0.66685 7.43662,-1.86652 11.33666,-3.72885 3.90004,-1.86234 7.6648,-4.38918 9.42792,-5.31876 1.76313,-0.92958 1.52544,-0.26177 -0.83643,1.47981 -2.36179,1.74159 -6.83546,4.54897 -10.12418,7.02734 -3.28878,2.47839 -5.3852,4.62281 -4.74115,5.29017 0.64405,0.66736 4.02631,-0.14173 8.00535,-1.85728 3.97895,-1.71553 8.55524,-4.3382 13.43982,-6.19664 4.88456,-1.85844 10.08003,-2.95455 12.36759,-3.21699 2.28764,-0.26243 1.66885,0.30998 -1.26541,1.43121 -2.93418,1.12122 -8.17086,2.78736 -8.93321,3.83608 -0.76235,1.04871 2.95511,1.47652 6.50546,1.7386 3.55034,0.2621 6.93436,0.35825 10.98498,-0.0228 4.05055,-0.38126 8.76997,-1.23989 9.77104,-1.12094 1.00129,0.11895 -1.71671,1.21591 -5.67334,2.90817 -3.95656,1.69225 -9.1488,3.97876 -9.83971,5.40883 -0.69083,1.43007 3.1202,2.00222 7.4091,2.66939 4.28897,0.66716 9.05656,1.4298 15.27572,1.35828 6.21915,-0.0715 13.89259,-0.97718 17.30026,-1.09663 3.40767,-0.11945 2.54985,0.54777 -1.00371,1.45407 -3.55357,0.90631 -9.79081,2.04883 -15.15273,3.12121 -5.36194,1.07237 -9.84183,2.07273 -10.29863,3.05971 -0.45672,0.98697 3.10878,1.95914 7.41906,2.78234 4.31027,0.82322 9.36695,1.49805 14.55655,1.39689 5.18954,-0.10116 10.51516,-0.97768 11.66125,-1.04517 1.14601,-0.0675 -1.88801,0.67434 -5.73052,1.75291 -3.84243,1.07858 -8.49193,2.49307 -13.00813,4.04339 -4.51621,1.55034 -8.8969,3.23474 -10.0427,4.38084 -1.14579,1.1461 0.94368,1.75301 4.68391,2.22473 3.74016,0.47171 9.13328,0.80906 14.28914,-0.53903 5.15594,-1.34809 10.0774,-4.38232 12.5034,-5.49463 2.42599,-1.1123 2.35754,-0.30311 -0.61053,1.75435 -2.96808,2.05745 -8.82619,5.35712 -13.47701,8.0196 -4.6509,2.66245 -8.0877,4.68406 -6.84007,5.32447 1.24761,0.64042 7.17784,-0.10081 10.48024,-0.37031 3.3024,-0.2695 3.97646,-0.0674 1.51848,1.34686 -2.45792,1.4142 -8.05652,4.04548 -8.49436,5.42741 -0.43784,1.38194 4.27954,1.51637 9.3679,1.01086 5.08837,-0.50552 10.54862,-1.65223 15.60317,-4.51666 5.05461,-2.86443 9.70668,-7.44838 12.60485,-10.14425 2.89816,-2.69588 4.04359,-3.50389 3.4715,-2.59504 -0.57217,0.90885 -2.86486,3.53886 -5.93213,6.87578 -3.06726,3.33693 -6.90771,7.37971 -9.3679,10.00843 -2.46025,2.6287 -3.53928,3.8417 -2.49348,3.909 1.0458,0.0673 4.21233,-1.01057 8.18827,-2.62792 3.97596,-1.61736 8.76243,-3.77422 11.99727,-6.57125 3.23476,-2.79704 4.92013,-6.23562 5.86349,-7.58352 0.94329,-1.3479 1.14537,-0.60582 0.2688,1.75433 -0.87659,2.36015 -2.83026,6.33329 -5.79629,11.11936 -2.96595,4.78605 -6.94073,10.37919 -7.58068,12.36755 -0.64003,1.98834 2.05513,0.37144 5.18865,-1.81868 3.13352,-2.19013 6.70655,-4.95441 9.63811,-8.08824 2.93152,-3.13382 5.22327,-6.63917 6.63844,-8.22262 1.41516,-1.58346 1.95588,-1.2467 1.34971,0.80781 -0.60618,2.05452 -2.35969,5.82959 -4.51665,9.16629 -1.73275,2.68045 -3.69943,5.05569 -4.20641,6.2095 0.47102,0.13025 0.93617,0.27194 1.39117,0.43465 0.28107,0.12777 0.26734,0.1065 0.51902,0.20589 7.36705,2.86751 12.62501,9.85291 16.47813,16.52962 4.30696,7.12494 4.74915,15.78616 9.53517,22.68051 4.4719,7.22524 6.8756,15.97604 4.7154,24.38623 0.85759,5.61596 -1.67252,10.95962 -2.88099,16.33518 1.59703,2.42934 1.10331,5.66655 0.31454,8.40421 -4.35298,12.80561 0.15086,26.59257 5.90068,38.11636 0.53469,0.90081 1.06915,1.8155 1.6042,2.72514 0.56001,1.00413 0.97477,1.70249 1.53273,2.60362 -0.004,-3.2e-4 -0.007,-0.002 -0.0115,-0.002 6.1723,10.70454 11.76385,22.07359 11.87284,34.66632 -0.39438,4.50765 0.9876,9.91195 -1.99167,13.72725 -1.25338,2.12172 -4.07302,-0.36544 -4.69681,2.16754 -1.1187,2.96886 -4.45566,7.0466 -7.88664,4.61531 -3.17172,2.0569 -6.87051,5.46758 -11.25232,5.64618 -6.87206,-1.15789 -14.33206,0.16214 -20.80179,-3.01682 -6.36084,-3.10308 -11.67658,-7.76004 -15.80187,-13.33694 -0.21508,0.47578 -0.65313,1.20109 -1.35399,2.15324 -1.78722,2.42798 -5.22124,6.2659 -8.82743,9.77108 -3.60627,3.50519 -7.37989,6.67303 -10.81765,9.36931 -3.43767,2.69627 -6.53789,4.91999 -7.78514,6.43684 -1.24733,1.51686 -0.64054,2.32611 1.04514,1.98882 1.68567,-0.33728 4.44819,-1.8206 7.17747,-2.93247 2.72929,-1.11187 5.42584,-1.85356 5.89786,-1.51699 0.4721,0.33657 -1.28027,1.75245 -3.94337,3.4043 -2.6631,1.6518 -6.2346,3.53835 -9.67243,5.02136 -3.43783,1.48302 -6.73934,2.56132 -8.22261,4.01052 -1.48327,1.4492 -1.14587,3.26759 -2.12322,5.8292 -0.97736,2.56159 -3.26837,5.86314 -6.50401,9.16627 -3.23563,3.30313 -7.41341,6.60596 -10.24437,8.83028 -2.83096,2.22433 -4.31386,3.36933 -2.52635,3.57158 1.7875,0.20225 6.84095,-0.53831 13.44552,-2.5264 6.60458,-1.98818 14.76051,-5.22449 21.5339,-8.83029 6.77338,-3.60584 12.16585,-7.58303 17.38891,-11.93004 5.22314,-4.347 10.27951,-9.06519 14.39067,-13.07528 4.11118,-4.01009 7.27886,-7.31258 8.89605,-8.76167 1.61719,-1.44907 1.68444,-1.04594 0.60479,0.50615 -1.07967,1.55208 -3.29943,4.24448 -6.83861,7.78369 -3.53921,3.53921 -8.39149,7.91872 -11.86286,11.72701 -3.47142,3.80829 -5.56089,7.04406 -5.96499,8.52717 -0.40408,1.48311 0.87714,1.21315 3.50438,-0.2016 2.6273,-1.41474 6.60567,-3.97818 8.32414,-4.65248 1.71856,-0.6743 1.18021,0.53938 -0.64054,2.25904 -1.82066,1.71966 -4.91882,3.94269 -8.25555,5.7291 -3.33673,1.78642 -6.90786,3.13338 -8.69442,4.34652 -1.78648,1.21314 -1.78729,2.2918 -2.19188,4.78689 -0.40461,2.49507 -1.21278,6.40164 -2.9653,10.61464 -1.75251,4.21299 -4.4482,8.72706 -6.57127,11.62549 -2.12315,2.89844 -3.67318,4.17988 -3.16697,4.61818 0.50614,0.43824 3.06676,0.0343 7.24468,-0.97654 4.17785,-1.01081 9.97579,-2.6292 14.05327,-4.11204 4.07757,-1.48283 6.43658,-2.83132 8.66009,-5.25727 2.22366,-2.42595 4.31459,-5.9327 5.29166,-7.14602 0.97713,-1.21331 0.84287,-0.13354 0.16866,1.28251 -0.67421,1.41605 -1.88714,3.16686 -1.44835,3.47007 0.43871,0.3032 2.52782,-0.84275 4.91988,-2.96536 2.39205,-2.1226 5.08837,-5.22435 6.46973,-10.34585 1.38136,-5.12148 1.44921,-12.26683 1.8201,-15.73752 0.3709,-3.47068 1.04533,-3.26949 1.28108,-0.7778 0.23575,2.49169 0.0331,7.28164 -0.0343,10.41591 -0.0675,3.13426 1.2e-4,4.61574 0.50614,4.61531 0.50601,-4.3e-4 1.44927,-1.4821 3.33566,-4.5138 1.88639,-3.03169 4.71822,-7.61766 7.21179,-12.13306 2.49355,-4.51541 4.65091,-8.96415 5.7291,-11.59261 1.07819,-2.62845 1.07813,-3.43807 2.2905,-5.8964 1.21236,-2.4583 3.64121,-6.57318 5.19151,-8.86459 1.5503,-2.29141 2.2239,-2.76357 1.7529,-1.38402 -0.47099,1.37955 -2.08987,4.61968 -3.40429,7.14744 -1.31442,2.52776 -2.32593,4.34684 -2.12322,4.75114 0.20272,0.4043 1.61707,-0.6068 3.84037,-2.32481 2.2233,-1.71802 5.25851,-4.14515 6.57268,-4.95417 1.31417,-0.80903 0.90941,-7.1e-4 -1.31682,2.19184 -2.22624,2.19255 -6.26539,5.7614 -9.02903,8.55863 -2.76363,2.79724 -4.24557,4.8188 -6.03222,8.18975 -1.78663,3.37094 -3.87643,8.08678 -4.11202,9.56947 -0.2356,1.48271 1.3825,-0.2697 4.91985,-3.70597 3.53735,-3.43627 8.9986,-8.56104 11.62693,-10.58319 2.62832,-2.02215 2.42655,-0.94354 0.74061,1.01229 -1.68592,1.95576 -4.85111,4.78518 -8.0868,8.32414 -3.23568,3.53897 -6.53749,7.78391 -8.69446,10.78336 -2.15696,2.99944 -3.16741,4.7513 -4.07771,8.52718 -0.91029,3.77585 -1.719,9.56899 -1.48267,11.89428 0.23631,2.3253 1.51609,1.18075 3.53726,-0.67199 2.02117,-1.85275 4.78723,-4.41586 6.26955,-5.39311 1.48233,-0.97726 1.68342,-0.37126 0.672,1.34828 -1.01142,1.71954 -3.2332,4.54917 -5.15434,6.97587 -1.92113,2.4267 -3.53827,4.44713 -4.07772,7.98672 -0.53945,3.53959 -0.002,8.59289 1.34686,15.13129 1.3481,6.5384 3.50487,14.55876 4.71825,17.96226 1.21337,3.4035 1.48333,2.18941 2.35913,0 0.87579,-2.18941 2.36007,-5.35838 4.51666,-8.28983 2.15658,-2.93145 4.98781,-5.62898 7.44769,-7.65072 2.45988,-2.02175 4.55012,-3.36954 6.20093,-5.59328 1.6508,-2.22375 2.86445,-5.32595 3.43718,-8.35846 0.57273,-3.03251 0.50499,-5.99842 -0.10152,-10.14282 -0.60651,-4.14439 -1.75236,-9.47035 -2.66224,-13.27832 -0.90988,-3.80795 -1.58362,-6.09964 -1.24676,-5.96502 0.33686,0.13465 1.68509,2.69603 2.83095,5.96502 1.14586,3.269 2.08826,7.24509 2.76232,11.12079 0.67407,3.8757 1.07925,7.6495 1.72002,9.06477 0.64077,1.41527 1.51597,0.47233 2.2905,-2.52498 0.77453,-2.99731 1.44889,-8.05668 1.63709,-12.03012 0.18822,-3.97344 -0.10872,-6.86695 -0.90075,-9.671 -0.79203,-2.80405 -2.07905,-5.52059 -3.65165,-8.30841 -1.57263,-2.78783 -3.43104,-5.64723 -3.90758,-6.69563 -0.47652,-1.04841 0.42814,-0.28577 1.73861,1.28679 1.31049,1.57256 3.02732,3.9548 4.26646,5.95644 1.23912,2.00164 2.00148,3.6216 2.57358,3.45433 0.57211,-0.16726 0.95282,-2.12064 1.26249,-4.81261 0.30969,-2.69197 0.54858,-6.12451 0.7392,-9.15056 0.19062,-3.02605 0.33349,-5.64776 -0.35744,-8.41136 -0.69093,-2.76356 -2.21715,-5.67101 -3.40859,-8.19689 -1.19144,-2.5259 -2.04931,-4.67165 -1.93019,-5.19581 0.11912,-0.52416 1.21584,0.57202 2.5264,2.35913 1.31057,1.78712 2.83553,4.26637 3.78891,4.81405 0.95339,0.54769 1.33512,-0.83433 1.66855,-3.45433 0.33343,-2.62 0.61911,-6.48282 0.83356,-9.48513 0.21445,-3.0023 0.35682,-5.1478 -0.16728,-7.07738 -0.52412,-1.92958 -1.71529,-3.64549 -1.61994,-3.90757 0.0953,-0.26208 1.47798,0.92825 2.09748,0.99941 0.6195,0.0712 0.47533,-0.9772 -0.1201,-2.19185 -0.59543,-1.21463 -1.64428,-2.59651 -1.57276,-2.81093 0.0715,-0.21441 1.26293,0.73864 2.07318,0.33314 0.81024,-0.40551 1.24021,-2.16908 1.62136,-4.21784 0.38114,-2.04875 0.714,-4.38555 1.38116,-6.88722 0.66717,-2.50167 1.6693,-5.17083 2.33626,-6.2667 0.66695,-1.09587 1.00029,-0.61958 0.76206,0.85786 -0.23822,1.47748 -1.04887,3.95497 -1.59706,5.90926 -0.54818,1.9543 -0.83348,3.38401 -0.0701,3.50296 0.76342,0.11892 2.57298,-1.07183 2.90673,-0.85787 0.33376,0.21395 -0.81034,1.83391 -2.09747,3.55012 -1.28714,1.71622 -2.7158,3.52677 -3.26418,5.24298 -0.54838,1.71623 -0.21515,3.3361 0.78637,3.1927 1.00154,-0.14342 2.66917,-2.04965 4.14635,-3.71742 1.47718,-1.66777 2.76424,-3.09746 3.1455,-3.21699 0.38127,-0.11952 -0.14265,1.07266 -1.66854,3.07544 -1.52586,2.00278 -4.04977,4.81188 -5.59899,7.36191 -1.54925,2.55002 -2.12178,4.83704 -1.88302,5.48032 0.23876,0.64329 1.28744,-0.35703 2.78805,-1.52414 1.50063,-1.1671 3.45558,-2.50161 3.74173,-2.28764 0.28615,0.21397 -1.0963,1.9779 -2.52641,3.81322 -1.43012,1.8353 -2.90676,3.74028 -4.07486,8.03103 -1.16811,4.29075 -2.02595,10.96092 -2.52641,15.84619 -0.50046,4.88528 -0.64365,7.98278 -0.28595,8.33988 0.35769,0.35708 1.2153,-2.02586 3.40715,-5.33734 2.19184,-3.3115 5.72003,-7.55427 6.98302,-8.81743 1.26298,-1.26316 0.26225,0.45221 -1.45408,3.31279 -1.71634,2.86056 -4.14611,6.86208 -5.93357,10.55603 -1.78745,3.69393 -2.93136,7.07639 -3.59875,10.48452 -0.66736,3.40813 -0.85783,6.83975 -1.00083,11.94005 -0.143,5.1003 -0.23758,11.86632 0.0486,14.53509 0.28619,2.66876 0.95277,1.23886 2.09605,-1.45266 1.14329,-2.69152 2.76517,-6.64917 4.33794,-9.38933 1.57276,-2.74015 3.09778,-4.2669 3.43145,-4.17207 0.33368,0.0948 -0.52425,1.81146 -1.81152,4.64819 -1.28727,2.83673 -3.00233,6.79089 -4.00337,10.93778 -1.00104,4.14687 -1.28626,8.48348 -1.191,11.17654 0.0953,2.69307 0.57191,3.74085 2.31195,6.88722 1.74004,3.14638 4.74157,8.387 7.26753,13.31978 2.52599,4.93277 4.57424,9.55631 5.80918,11.64694 1.23494,2.09063 2.67688,2.09063 3.91185,0 1.23495,-2.09063 3.28316,-6.71417 5.80916,-11.64694 2.52593,-4.93278 5.52751,-10.1734 7.26755,-13.31978 1.74004,-3.14637 2.21668,-4.19415 2.31194,-6.88722 0.0953,-2.69306 -0.18996,-7.02967 -1.191,-11.17654 -1.00103,-4.14689 -2.71609,-8.10105 -4.00336,-10.93778 -1.28727,-2.83673 -2.14521,-4.55336 -1.81153,-4.64819 0.33367,-0.0948 1.85869,1.43192 3.43146,4.17207 1.57277,2.74016 3.19464,6.69781 4.33793,9.38933 1.1433,2.69152 1.80986,4.12142 2.09605,1.45266 0.28618,-2.66877 0.19164,-9.43479 0.0486,-14.53509 -0.143,-5.1003 -0.33346,-8.53192 -1.00084,-11.94005 -0.66738,-3.40813 -1.81129,-6.79059 -3.59874,-10.48452 -1.78746,-3.69395 -4.21723,-7.69547 -5.93357,-10.55603 -1.71634,-2.86058 -2.717,-4.57595 -1.45408,-3.31279 1.26302,1.26316 4.79118,5.50593 6.98301,8.81743 2.19185,3.31148 3.04947,5.69442 3.40716,5.33734 0.3577,-0.3571 0.21451,-3.4546 -0.28596,-8.33988 -0.50046,-4.88527 -1.35831,-11.55544 -2.5264,-15.84619 -1.1681,-4.29075 -2.64476,-6.19573 -4.07487,-8.03103 -1.4301,-1.83532 -2.81255,-3.59925 -2.52641,-3.81322 0.28615,-0.21397 2.24111,1.12054 3.74173,2.28764 1.50061,1.16711 2.54929,2.16743 2.78806,1.52414 0.23875,-0.64328 -0.33378,-2.9303 -1.88302,-5.48032 -1.54923,-2.55003 -4.07316,-5.35913 -5.599,-7.36191 -1.52594,-2.00278 -2.04987,-3.19496 -1.66853,-3.07544 0.38124,0.11953 1.66836,1.54922 3.1455,3.21699 1.47717,1.66777 3.1448,3.574 4.14634,3.71742 1.00152,0.1434 1.33475,-1.47647 0.78638,-3.1927 -0.54838,-1.71621 -1.97704,-3.52676 -3.26418,-5.24298 -1.28714,-1.71621 -2.43123,-3.33617 -2.09748,-3.55012 0.33375,-0.21396 2.14332,0.97679 2.90674,0.85787 0.76342,-0.11895 0.4781,-1.54866 -0.07,-3.50296 -0.54819,-1.95429 -1.35883,-4.43177 -1.59705,-5.90926 -0.23823,-1.47744 0.0951,-1.95373 0.76207,-0.85786 0.66696,1.09587 1.66908,3.76503 2.33624,6.2667 0.66716,2.50167 1.00002,4.83847 1.38117,6.88722 0.38115,2.04876 0.81111,3.81233 1.62137,4.21784 0.81025,0.4055 2.00165,-0.54755 2.07317,-0.33314 0.0715,0.21442 -0.97732,1.5963 -1.57275,2.81093 -0.59544,1.21465 -0.7396,2.26302 -0.1201,2.19185 0.6195,-0.0712 2.00215,-1.26149 2.09747,-0.99941 0.0953,0.26208 -1.09582,1.97799 -1.61993,3.90757 -0.52411,1.92958 -0.38173,4.07508 -0.16728,7.07738 0.21445,3.00231 0.50012,6.86513 0.83356,9.48513 0.33343,2.62 0.71515,4.00202 1.66853,3.45433 0.95338,-0.54768 2.47835,-3.02693 3.78891,-4.81405 1.31057,-1.78711 2.40729,-2.88329 2.52642,-2.35913 0.11912,0.52416 -0.73876,2.66991 -1.93021,5.19581 -1.19143,2.52588 -2.71765,5.43335 -3.40857,8.19689 -0.69093,2.76359 -0.54806,5.38531 -0.35744,8.41136 0.19061,3.02605 0.4295,6.45859 0.73919,9.15056 0.30967,2.69197 0.69038,4.64535 1.26248,4.81261 0.5721,0.16727 1.33447,-1.45269 2.5736,-3.45433 1.23913,-2.00164 2.95596,-4.38388 4.26645,-5.95644 1.31047,-1.57256 2.21513,-2.3352 1.7386,-1.28679 -0.47653,1.0484 -2.33494,3.9078 -3.90757,6.69563 -1.5726,2.78782 -2.85962,5.50436 -3.65165,8.30841 -0.79202,2.80405 -1.08898,5.69756 -0.90076,9.671 0.18821,3.97344 0.86256,9.03281 1.6371,12.03012 0.77453,2.99731 1.64973,3.94025 2.2905,2.52498 0.64076,-1.41527 1.04596,-5.18907 1.72002,-9.06477 0.67405,-3.8757 1.61645,-7.85179 2.76232,-11.12079 1.14586,-3.26899 2.4941,-5.83037 2.83095,-5.96502 0.33687,-0.13462 -0.33688,2.15707 -1.24676,5.96502 -0.90988,3.80797 -2.05572,9.13393 -2.66224,13.27832 -0.60651,4.1444 -0.67424,7.11031 -0.10152,10.14282 0.57274,3.03251 1.78638,6.13471 3.43718,8.35846 1.65082,2.22374 3.74105,3.57153 6.20093,5.59328 2.45988,2.02174 5.29112,4.71927 7.4477,7.65072 2.15658,2.93145 3.64087,6.10042 4.51666,8.28983 0.87579,2.18941 1.14576,3.4035 2.35912,0 1.21337,-3.4035 3.37014,-11.42386 4.71826,-17.96226 1.34831,-6.5384 1.8863,-11.5917 1.34685,-15.13129 -0.53945,-3.53959 -2.15659,-5.56002 -4.07772,-7.98672 -1.92114,-2.4267 -4.14292,-5.25633 -5.15433,-6.97587 -1.01145,-1.71954 -0.81034,-2.32554 0.67198,-1.34828 1.48233,0.97725 4.2484,3.54036 6.26957,5.39311 2.02117,1.85274 3.30094,2.99729 3.53726,0.67199 0.23632,-2.32529 -0.57238,-8.11843 -1.48267,-11.89428 -0.9103,-3.77588 -1.92075,-5.52774 -4.07773,-8.52718 -2.15696,-2.99945 -5.45877,-7.24439 -8.69445,-10.78336 -3.2357,-3.53896 -6.40087,-6.3684 -8.0868,-8.32414 -1.68593,-1.95581 -1.8877,-3.03444 0.74062,-1.01229 2.62832,2.02215 8.08958,7.14692 11.62693,10.58319 3.53734,3.43627 5.15545,5.18868 4.91985,3.70597 -0.2356,-1.48269 -2.3254,-6.19853 -4.11204,-9.56947 -1.78664,-3.37095 -3.26858,-5.39251 -6.03222,-8.18975 -2.76362,-2.79723 -6.80279,-6.36608 -9.02902,-8.55863 -2.22623,-2.19255 -2.63099,-3.00087 -1.31682,-2.19184 1.31418,0.80902 4.34937,3.23615 6.57267,4.95417 2.2233,1.71801 3.63767,2.72911 3.84038,2.32481 0.20271,-0.4043 -0.80879,-2.22338 -2.12321,-4.75114 -1.31443,-2.52776 -2.93332,-5.76789 -3.40431,-7.14744 -0.47099,-1.37955 0.20262,-0.90739 1.75292,1.38402 1.55029,2.29141 3.97914,6.40629 5.1915,8.86459 1.21236,2.45833 1.21232,3.26795 2.2905,5.8964 1.0782,2.62846 3.23556,7.0772 5.72911,11.59261 2.49355,4.5154 5.32538,9.10137 7.21178,12.13306 1.88638,3.0317 2.82965,4.51337 3.33566,4.5138 0.50601,4.3e-4 0.57357,-1.48105 0.50614,-4.61531 -0.0674,-3.13427 -0.27002,-7.92422 -0.0343,-10.41591 0.23575,-2.49169 0.91018,-2.69288 1.28108,0.7778 0.3709,3.47069 0.43874,10.61604 1.8201,15.73752 1.38136,5.1215 4.07768,8.22325 6.46973,10.34585 2.39203,2.12261 4.48114,3.26856 4.91985,2.96536 0.43879,-0.30321 -0.77415,-2.05402 -1.44836,-3.47007 -0.67421,-1.41605 -0.80842,-2.49582 0.16871,-1.28251 0.97706,1.21332 3.06795,4.72007 5.2916,7.14602 2.22366,2.42595 4.58258,3.77444 8.66014,5.25727 4.07749,1.48284 9.8754,3.10123 14.05325,4.11204 4.17793,1.0108 6.73853,1.41477 7.24467,0.97654 0.50621,-0.43829 -1.04381,-1.71974 -3.16696,-4.61818 -2.12307,-2.89843 -4.81872,-7.4125 -6.57123,-11.62549 -1.75251,-4.213 -2.56076,-8.11957 -2.96535,-10.61464 -0.40461,-2.49509 -0.40537,-3.57375 -2.19184,-4.78689 -1.78656,-1.21314 -5.35773,-2.5601 -8.69446,-4.34652 -3.33676,-1.78641 -6.43485,-4.00944 -8.25553,-5.7291 -1.82073,-1.71966 -2.35908,-2.93334 -0.64053,-2.25904 1.71847,0.6743 5.69685,3.23774 8.32414,4.65248 2.62724,1.41475 3.90847,1.68471 3.50437,0.2016 -0.40408,-1.48311 -2.49358,-4.71888 -5.965,-8.52717 -3.47136,-3.80829 -8.32364,-8.1878 -11.86285,-11.72701 -3.53916,-3.53921 -5.75893,-6.23161 -6.83861,-7.78369 -1.07964,-1.55209 -1.01239,-1.95522 0.6048,-0.50615 1.61719,1.44909 4.78486,4.75158 8.89606,8.76167 4.11116,4.01009 9.16754,8.72828 14.39067,13.07528 5.22307,4.34701 10.61553,8.32419 17.38892,11.93004 6.77339,3.6058 14.92925,6.84211 21.53383,8.83029 6.60457,1.98809 11.65809,2.72865 13.4456,2.5264 1.7875,-0.20225 0.30454,-1.34725 -2.52642,-3.57158 -2.83096,-2.22432 -7.00869,-5.52715 -10.24433,-8.83028 -3.23563,-3.30313 -5.52669,-6.60468 -6.50404,-9.16627 -0.97736,-2.56161 -0.63995,-4.38 -2.12322,-5.8292 -1.48327,-1.4492 -4.7848,-2.5275 -8.22263,-4.01052 -3.43783,-1.48301 -7.00932,-3.36956 -9.67242,-5.02136 -2.6631,-1.65185 -4.41542,-3.06773 -3.94332,-3.4043 0.47202,-0.33657 3.16854,0.40512 5.89782,1.51699 2.72928,1.11187 5.49179,2.59519 7.17747,2.93247 1.68567,0.33729 2.29249,-0.47196 1.04516,-1.98882 -1.24726,-1.51685 -4.34743,-3.74057 -7.78512,-6.43684 -3.43775,-2.69628 -7.21141,-5.86412 -10.81768,-9.36931 -3.60619,-3.50518 -7.0402,-7.3431 -8.82741,-9.77108 -0.70087,-0.95215 -1.13893,-1.67746 -1.354,-2.15324 -4.1253,5.5769 -9.44104,10.23386 -15.80187,13.33694 -6.46973,3.17896 -13.92971,1.85893 -20.80178,3.01682 -4.38181,-0.1786 -8.08061,-3.58928 -11.25233,-5.64618 -3.43097,2.43129 -6.76794,-1.64645 -7.88663,-4.61531 -0.62378,-2.53298 -3.44342,-0.0459 -4.69681,-2.16754 -2.97927,-3.8153 -1.59728,-9.2196 -1.99168,-13.72725 0.109,-12.59273 5.70056,-23.96178 11.87285,-34.66632 -0.004,0 -0.008,0.002 -0.0115,0.002 0.55795,-0.90113 0.97272,-1.59949 1.53271,-2.60362 0.53507,-0.90964 1.06952,-1.82433 1.60421,-2.72514 5.74982,-11.52379 10.25368,-25.31075 5.90068,-38.11636 -0.78876,-2.73766 -1.28248,-5.97487 0.31455,-8.40421 -1.20848,-5.37556 -3.73858,-10.71922 -2.88099,-16.33518 -2.1602,-8.41019 0.24349,-17.16099 4.71539,-24.38623 4.78602,-6.89435 5.22821,-15.55557 9.53516,-22.68051 3.85314,-6.67671 9.11109,-13.66211 16.47816,-16.52962 0.26159,-0.10897 0.29178,-0.11939 0.519,-0.20589 0.455,-0.16271 0.92015,-0.3044 1.39118,-0.43465 -0.507,-1.15381 -2.47366,-3.52905 -4.2064,-6.2095 -2.15697,-3.3367 -3.91048,-7.11177 -4.51666,-9.16629 -0.60618,-2.05451 -0.0654,-2.39127 1.34971,-0.80781 1.41517,1.58345 3.70693,5.0888 6.63844,8.22262 2.93153,3.13383 6.50459,5.89811 9.6381,8.08824 3.13352,2.19012 5.82869,3.80702 5.18866,1.81868 -0.63995,-1.98836 -4.61472,-7.5815 -7.58067,-12.36755 -2.96602,-4.78607 -4.91974,-8.75921 -5.7963,-11.11936 -0.87657,-2.36015 -0.6745,-3.10223 0.2688,-1.75433 0.94332,1.3479 2.62875,4.78648 5.8635,7.58352 3.23483,2.79703 8.02129,4.95389 11.99724,6.57125 3.97595,1.61735 7.14252,2.69519 8.18832,2.62792 1.04579,-0.0673 -0.0333,-1.2803 -2.49353,-3.909 -2.46018,-2.62872 -6.30062,-6.6715 -9.36788,-10.00843 -3.06727,-3.33692 -5.35997,-5.96693 -5.93213,-6.87578 -0.57209,-0.90885 0.57332,-0.10084 3.47148,2.59504 2.89817,2.69587 7.55028,7.27982 12.6049,10.14425 5.05454,2.86443 10.51476,4.01114 15.60312,4.51666 5.08837,0.50551 9.80572,0.37108 9.36789,-1.01086 -0.43785,-1.38193 -6.03638,-4.01321 -8.49429,-5.42741 -2.45799,-1.4142 -1.78398,-1.61636 1.51841,-1.34686 3.3024,0.2695 9.23263,1.01073 10.48025,0.37031 1.24762,-0.64041 -2.18914,-2.66202 -6.84005,-5.32447 -4.65081,-2.66247 -10.50896,-5.96215 -13.47704,-8.0196 -2.96807,-2.05746 -3.03651,-2.86665 -0.61051,-1.75435 2.42599,1.11231 7.34743,4.14654 12.50337,5.49463 5.15586,1.34809 10.549,1.01074 14.28917,0.53903 3.74023,-0.47172 5.82974,-1.07863 4.68394,-2.22473 -1.1458,-1.1461 -5.52653,-2.8305 -10.04274,-4.38084 -4.5162,-1.55032 -9.16566,-2.96481 -13.00808,-4.04339 -3.84251,-1.07857 -6.87656,-1.8204 -5.73054,-1.75291 1.14608,0.0675 6.4717,0.94401 11.66123,1.04517 5.18962,0.10116 10.24624,-0.57367 14.55655,-1.39689 4.31027,-0.8232 7.87581,-1.79537 7.41909,-2.78234 -0.4568,-0.98698 -4.93673,-1.98734 -10.29867,-3.05971 -5.36193,-1.07238 -11.59918,-2.2149 -15.15275,-3.12121 -3.55356,-0.9063 -4.41136,-1.57352 -1.0037,-1.45407 3.40767,0.11945 11.08112,1.02511 17.30027,1.09663 6.21916,0.0715 10.98674,-0.69112 15.27572,-1.35828 4.28889,-0.66717 8.09991,-1.23932 7.40908,-2.66939 -0.6909,-1.43007 -5.88314,-3.71658 -9.8397,-5.40883 -3.95656,-1.69226 -6.67449,-2.78922 -5.67334,-2.90817 1.00106,-0.11895 5.72052,0.73968 9.77106,1.12094 4.05063,0.3812 7.43462,0.28504 10.98496,0.0228 3.55034,-0.26208 7.26783,-0.68989 6.50547,-1.7386 -0.76234,-1.04872 -5.99904,-2.71486 -8.93322,-3.83608 -2.93426,-1.12123 -3.55299,-1.69364 -1.26535,-1.43121 2.28756,0.26244 7.48298,1.35855 12.36754,3.21699 4.88457,1.85844 9.46093,4.48111 13.43988,6.19664 3.97896,1.71555 7.36126,2.52464 8.00531,1.85728 0.64405,-0.66736 -1.45235,-2.81178 -4.74113,-5.29017 -3.28872,-2.47837 -7.76244,-5.28575 -10.12424,-7.02734 -2.36186,-1.74158 -2.59954,-2.40939 -0.83642,-1.47981 1.76313,0.92958 5.5279,3.45642 9.42794,5.31876 3.90004,1.86233 7.93758,3.062 11.33668,3.72885 3.3991,0.66684 6.1612,0.80112 5.95929,-0.682 -0.20182,-1.48312 -3.36848,-4.58224 -6.60412,-7.17747 -3.23571,-2.59522 -6.53518,-4.68352 -8.55863,-6.13373 -2.02352,-1.45022 -2.76509,-2.25847 -1.58562,-1.82011 1.17955,0.43837 4.28066,2.1228 7.3133,4.04341 3.03257,1.9206 5.9988,4.07802 9.16628,5.426 3.16741,1.34796 6.5398,1.88768 8.62869,1.9888 2.08882,0.10114 2.89739,-0.23552 1.98738,-1.65138 -0.91,-1.41587 -3.53809,-3.90912 -5.7963,-6.60556 -2.25814,-2.69643 -4.14845,-5.598 -4.754,-6.84289 -0.60555,-1.2449 0.0697,-0.84101 1.85585,1.24819 1.78612,2.0892 4.68444,5.86518 7.58209,8.29126 2.89758,2.42608 5.79627,3.50473 8.28983,3.84181 2.49357,0.33706 4.58248,-0.0679 4.0434,-1.61852 -0.53901,-1.55064 -3.7059,-4.24489 -6.46973,-7.00875 -2.76376,-2.76385 -5.11943,-5.59202 -6.40109,-7.41338 -1.28167,-1.82136 -1.48424,-2.62981 -0.17015,-1.31539 1.3141,1.31442 4.14633,4.75267 7.1789,7.71792 3.03257,2.96526 6.26779,5.4598 10.31153,7.3133 4.04367,1.85349 8.89838,3.06645 12.26746,3.74028 3.36902,0.67384 5.25622,0.80799 3.63878,-0.84355 -1.61753,-1.65156 -6.73817,-5.08761 -10.74905,-8.35704 -4.01086,-3.26943 -6.90866,-6.36872 -9.60522,-8.93038 -2.69655,-2.56165 -5.18934,-4.58296 -6.23381,-5.86349 -1.04456,-1.28055 -0.64061,-1.82062 0.74062,-0.84358 1.38122,0.97706 3.74008,3.47151 6.53693,6.20095 2.79677,2.72943 6.03259,5.69566 10.10993,8.32413 4.07735,2.62849 8.9992,4.92108 12.80649,6.53836 3.80729,1.61728 6.50323,2.56139 5.93071,0.70774 -0.57254,-1.85365 -4.414,-6.50443 -9.23349,-10.85199 -4.81949,-4.34755 -10.61238,-8.3881 -14.11902,-10.95063 -3.50656,-2.56257 -4.72094,-3.64253 -5.05712,-4.18067 -0.33615,-0.53814 0.20263,-0.53841 2.76377,1.28108 2.56113,1.81949 7.1463,5.45881 11.99866,8.42423 4.85242,2.96541 9.97468,5.2585 14.92827,6.26956 4.95367,1.01106 9.74114,0.74119 13.31263,0.53903 3.5715,-0.20216 5.92996,-0.33787 6.0651,-1.72003 0.13521,-1.38213 -1.95412,-4.01016 -6.33533,-5.86349 -4.38121,-1.85334 -11.05273,-2.93087 -16.37806,-4.34652 -5.32541,-1.41564 -9.30125,-3.16777 -12.73929,-4.71825 -3.43798,-1.55048 -6.33468,-2.8979 -7.64929,-3.8418 -1.31453,-0.94392 -1.0447,-1.48237 2.0889,-0.13441 3.13359,1.34797 9.13334,4.58363 15.30001,6.84148 6.16675,2.25783 12.50282,3.53717 18.73719,3.53726 6.23438,8e-5 12.36829,-1.2798 17.65914,-2.93104 5.29078,-1.65124 9.73895,-3.67375 8.05392,-5.05569 -1.68494,-1.38193 -9.50265,-2.12278 -16.91709,-2.96535 -7.41451,-0.84256 -14.42261,-1.78586 -19.98395,-2.89814 -5.56127,-1.1123 -9.66868,-2.39138 -11.65838,-3.33567 -1.98963,-0.94433 -1.85465,-1.55187 -0.17015,-1.181 1.68451,0.37088 4.91928,1.71965 9.26637,2.79807 4.3471,1.07843 9.80798,1.88791 15.97487,2.15752 6.16689,0.26965 13.04118,-5.3e-4 18.70288,-1.51698 5.66171,-1.51645 10.11064,-4.27985 12.8408,-6.60556 2.72979,-2.3257 3.7384,-4.21202 -0.07,-4.75113 -3.80845,-0.53912 -12.43434,0.26881 -21.06201,0.5047 -8.62765,0.23589 -17.24007,-0.0996 -21.7297,-0.5047 -4.48963,-0.4051 -4.82575,-0.87687 -1.48983,-0.87646 3.33644,4.2e-4 10.34646,0.47158 17.65915,0.30311 7.31268,-0.16845 14.92867,-0.97728 21.46663,-3.36997 6.53804,-2.39269 11.99793,-6.36946 15.63744,-9.09909 3.63951,-2.72961 5.45952,-4.2118 4.78546,-4.75113 -0.67414,-0.53935 -3.84196,-0.13563 -8.56007,0.74062 -4.71816,0.87624 -10.98537,2.22413 -17.92793,3.13406 -6.94264,0.90993 -14.5533,1.38181 -18.93736,1.41548 -4.38407,0.0337 -5.53088,-0.37133 -1.31825,-0.80925 4.21269,-0.43792 13.78486,-0.9095 22.98505,-3.03256 9.20011,-2.12304 18.02899,-5.8969 23.75856,-10.17712 5.72949,-4.28023 8.35682,-9.06481 10.31152,-12.36755 1.95471,-3.30275 3.23564,-5.12254 1.34828,-4.78546 -1.88735,0.33708 -6.94256,2.83003 -13.0424,5.76199 -6.09983,2.93196 -13.24268,6.30251 -21.02769,9.36931 -7.78499,3.0668 -16.19815,5.82587 -20.72028,7.07452 -4.52221,1.24866 -5.12841,0.97909 -4.31936,0.50757 0.80907,-0.47152 3.03266,-1.14618 8.28984,-2.99966 5.25718,-1.85348 13.54721,-4.88552 20.9276,-8.72735 7.3804,-3.84181 13.85122,-8.49304 17.92937,-13.31263 4.07815,-4.81958 5.76256,-9.80551 7.21179,-13.7487 1.17741,-3.20384 2.19801,-5.71829 1.63566,-5.64474 -0.12972,0.0169 -0.34318,0.17158 -0.65913,0.48754 -1.68502,1.68515 -6.26703,7.95313 -12.09732,13.64863 -5.83022,5.6955 -12.90818,10.81879 -20.2213,15.19993 -7.31313,4.38111 -14.86137,8.02001 -18.59707,9.57663 -3.7357,1.55668 -3.65923,1.03143 -3.28705,-0.0414 0.37217,-1.07296 1.03977,-2.69274 1.49269,-4.06343 0.45291,-1.37068 0.69112,-2.49043 -0.39319,-1.50126 -1.08423,0.98918 -3.49056,4.08722 -5.73054,6.67276 -2.23999,2.58555 -4.31331,4.65755 -7.56637,6.31388 -3.25313,1.65633 -7.68538,2.89573 -14.14332,4.92128 -6.45788,2.02555 -14.94053,4.83687 -23.13804,7.98243 -8.19751,3.14557 -16.10583,6.62403 -20.87327,8.50716 -4.76729,1.88314 -6.38795,2.16847 -4.71969,1.07233 1.66826,-1.09614 6.62408,-3.57391 10.69901,-6.2667 4.075,-2.6928 7.26878,-5.59933 9.48512,-7.83945 2.21626,-2.24012 3.45543,-3.81329 0.71488,-2.66939 -2.74048,1.14391 -9.46008,5.00468 -16.16217,7.95384 -6.70209,2.94915 -13.38556,4.98585 -18.88445,6.69563 -5.49883,1.70977 -9.81117,3.09145 -13.92315,3.81606 -4.11196,0.72462 -8.02094,0.79171 -12.26745,0.69059 -4.24666,-0.10107 -8.82856,-0.37114 -13.20969,-0.0171 -4.38122,0.35392 -7.00101,0.5937 -11.72844,1.88731 -2.54083,0.69527 2.19312,-0.67542 4.39473,-4.98852 1.14291,-2.23904 1.0124,-2.92732 -0.44383,-2.00923 -2.76561,1.7436 -4.05039,2.06132 -7.3366,3.59489 -3.2863,1.53355 -6.01532,2.27365 -8.27697,2.61219 -2.26151,0.33854 -4.05438,0.274 -5.59328,1.59992 -1.53883,1.32591 -2.82558,4.04313 -4.85122,6.40253 -2.02571,2.3594 -4.78956,4.3612 -8.29269,6.60126 -3.50305,2.24005 -7.74466,4.71779 -12.43903,7.98243 -4.69446,3.26464 -9.8413,7.31548 -13.3684,9.93693 -3.52709,2.62152 -5.43247,3.81179 -7.64929,3.95476 -2.21683,0.14296 -4.74152,-0.76172 -7.83945,-0.95223 -3.09792,-0.19051 -6.76814,0.33405 -9.88975,1.38259 -1.79629,0.60337 -3.40789,1.3825 -4.45518,2.57359 0.81523,0.70436 1.75023,1.29359 2.82381,1.72002 3.04478,1.24665 8.57747,3.83229 6.48259,7.95241 -0.55842,0.95303 -1.85084,1.44599 -2.68939,1.68284 2.62051,1.61268 8.02339,4.40275 5.06568,7.98959 -1.29694,1.46712 -3.63972,1.45768 -5.25442,1.53271 3.45075,1.25226 2.4552,6.16713 -0.2016,6.8858 2.49297,2.42153 -0.28093,6.51847 -3.48722,5.50462 -0.94123,0.13597 -1.22716,2.30257 -2.55357,2.58075 1.03583,2.92954 -2.41863,4.95956 -4.68538,3.94045 -0.53336,1.20909 -2.10717,1.54024 -0.0686,2.44063 3.05523,1.88171 2.8605,7.20495 -1.16956,7.55064 -1.1309,0.57274 -3.74538,-0.43837 -3.90757,0.11009 2.23278,2.52762 -0.17788,7.32932 -3.59874,5.80202 -2.207,-1.4926 -0.72117,2.51306 -1.52701,3.88183 -0.34163,3.17971 -4.01179,7.06182 -7.07595,4.34366 -1.01773,-0.88695 -0.63613,2.57928 -1.28537,3.14122 -1.362,3.90783 -3.33499,9.1973 -7.70934,10.08563 -2.2193,-1.18907 -1.69073,2.44198 -2.95248,3.59731 -1.10806,1.58899 -3.83009,1.56159 -4.86552,-0.15013 -0.39183,1.06046 -1.15764,2.65821 -1.87729,3.91329 -0.33041,0.57622 -0.67879,1.15065 -1.11521,1.65139 -0.87653,1.00578 -1.98707,2.06807 -2.97965,2.67225 -0.99258,0.60419 -1.44661,0.1729 -1.74861,-0.63626 -0.30201,-0.80914 -0.45289,-1.99474 -0.63053,-2.35626 -0.17765,-0.36151 -0.38152,0.10286 -0.73776,0.29739 -0.35625,0.19453 -0.86226,0.11932 -1.15383,-0.0915 -0.29159,-0.21082 -0.36737,-0.55584 -0.5233,-0.44323 -0.15594,0.11261 -0.39411,0.68473 -0.91219,0.94937 -0.5181,0.26464 -1.31412,0.22119 -1.94022,-0.24306 -0.52486,-0.38921 -0.93109,-1.09197 -1.38115,-2.08747 -0.78377,-1.30918 -1.29928,-2.6536 -1.65854,-3.62591 -1.03545,1.71172 -3.75746,1.73912 -4.86552,0.15013 -1.26176,-1.15533 -0.73319,-4.78638 -2.95249,-3.59731 -4.37434,-0.88833 -6.34734,-6.1778 -7.70934,-10.08563 -0.64924,-0.56194 -0.26763,-4.02817 -1.28537,-3.14122 -3.06415,2.71816 -6.73431,-1.16395 -7.07596,-4.34366 -0.80583,-1.36877 0.68001,-5.37443 -1.52699,-3.88183 -3.42087,1.5273 -5.83153,-3.2744 -3.59874,-5.80202 -0.16219,-0.54846 -2.77667,0.46265 -3.90757,-0.11009 -4.03007,-0.34569 -4.2248,-5.66893 -1.16956,-7.55064 2.03847,-0.90039 0.46466,-1.23154 -0.0686,-2.44063 -2.26675,1.01911 -5.72121,-1.01091 -4.68537,-3.94045 -1.32642,-0.27818 -1.61235,-2.44478 -2.55358,-2.58075 -3.2063,1.01385 -5.98018,-3.08309 -3.48721,-5.50462 -2.65682,-0.71867 -3.65235,-5.63354 -0.2016,-6.8858 -1.6147,-0.075 -3.95748,-0.0656 -5.25442,-1.53271 -2.95771,-3.58684 2.44518,-6.37691 5.06569,-7.98959 -0.83855,-0.23685 -2.13098,-0.72983 -2.68941,-1.68284 -2.09489,-4.12012 3.43781,-6.70576 6.4826,-7.95241 1.07357,-0.42643 2.00858,-1.01566 2.8238,-1.72002 -1.04729,-1.19109 -2.65888,-1.97022 -4.45518,-2.57359 -3.12161,-1.04854 -6.79182,-1.5731 -9.88974,-1.38259 -3.09792,0.19051 -5.62263,1.09519 -7.83946,0.95223 -2.21681,-0.14297 -4.12219,-1.33323 -7.64929,-3.95476 -3.52714,-2.62147 -8.67393,-6.67229 -13.36838,-9.93693 -4.69439,-3.26464 -8.93599,-5.74238 -12.43905,-7.98243 -3.50312,-2.24006 -6.26695,-4.24186 -8.29267,-6.60126 -2.02564,-2.3594 -3.31243,-5.07662 -4.85126,-6.40253 -1.5389,-1.32592 -3.33176,-1.26138 -5.59326,-1.59992 -2.26164,-0.33854 -4.99071,-1.07864 -8.277,-2.61219 -3.28622,-1.53357 -7.12748,-3.85826 -8.71155,-4.53239 -1.584,-0.67412 0.88807,3.90167 2.52071,5.36605 2.88833,2.59067 5.97371,3.12536 2.80513,2.5692 -3.1685,-0.55617 -7.34716,-1.53339 -11.72837,-1.88731 -4.38115,-0.35391 -8.96309,-0.0839 -13.20975,0.0171 -4.24651,0.10112 -8.15549,0.034 -12.26745,-0.69059 -4.11197,-0.72461 -8.42429,-2.10629 -13.92312,-3.81606 -5.4989,-1.70978 -12.18239,-3.74648 -18.88448,-6.69563 -6.70208,-2.94916 -13.42166,-6.80993 -16.16214,-7.95384 -2.74056,-1.1439 -1.50135,0.42927 0.71491,2.66939 2.21633,2.24012 5.4101,5.14665 9.4851,7.83945 4.07493,2.69279 9.03072,5.17056 10.69897,6.2667 1.66826,1.09614 0.0476,0.81081 -4.71964,-1.07233 -4.76743,-1.88313 -12.67578,-5.36159 -20.87329,-8.50716 -8.1975,-3.14556 -16.68014,-5.95688 -23.13802,-7.98243 -6.45795,-2.02555 -10.89003,-3.26495 -14.14339,-4.92128 -3.25306,-1.65633 -5.32635,-3.72833 -7.56634,-6.31388 -2.23998,-2.58554 -4.64629,-5.68358 -5.73051,-6.67276 -1.08431,-0.98917 -0.8461,0.13058 -0.39319,1.50126 0.45292,1.37069 1.12047,2.99047 1.49264,4.06343 0.37218,1.07295 0.44867,1.5982 -3.28703,0.0414 -3.73569,-1.55662 -11.28394,-5.19551 -18.59707,-9.57663 -7.31312,-4.38116 -14.39104,-9.50443 -20.22126,-15.19993 -5.8303,-5.6955 -10.41231,-11.96348 -12.09733,-13.64863 -0.31595,-0.31596 -0.52941,-0.47058 -0.65913,-0.48754 z m 305.03089,73.28021 c -0.86861,0.10339 -0.095,1.25105 0.74777,2.1275 0.84275,0.87645 1.75274,1.48132 3.08403,1.81725 1.33128,0.33593 3.0849,0.40218 3.69167,0.63768 0.60677,0.23549 0.0664,0.64105 -1.41834,0.67484 -1.48474,0.0339 -3.9076,-0.30339 -6.19092,-0.009 -2.28332,0.29476 -4.42148,1.2217 -4.53953,1.59278 -0.11805,0.37102 1.78528,0.18499 3.63019,0.37888 1.84492,0.19388 3.63053,0.76658 5.04568,1.32253 1.41514,0.55597 2.46125,1.09603 2.74802,1.58421 0.28674,0.48815 -0.18626,0.92531 -1.14811,0.7735 -0.96185,-0.15183 -2.40781,-0.89091 -4.29504,-1.29537 -1.88721,-0.40448 -4.21185,-0.47161 -6.32675,0.0844 -2.11489,0.55595 -4.01787,1.73431 -4.19496,2.31622 -0.17708,0.58192 1.37306,0.56452 2.56073,0.86788 1.18768,0.30336 2.01256,0.92606 2.24045,1.42263 0.22787,0.49656 -0.14355,0.86815 -2.05601,1.1381 -1.91246,0.26994 -5.36256,0.43898 -8.39849,2.31908 -3.03591,1.88017 -5.64449,5.46366 -6.108,7.0488 -0.46353,1.58513 1.22079,1.16394 2.46779,0.68342 1.24701,-0.48047 2.05516,-1.01938 3.06544,-1.23817 1.01028,-0.21879 2.22537,-0.11832 2.51211,0.0501 0.28674,0.16824 -0.35379,0.4039 -1.12952,0.69058 -0.77573,0.28668 -1.68415,0.62434 -2.17326,1.65281 -0.48911,1.02847 -0.55754,2.7447 -0.8693,4.78403 -0.31177,2.03933 -0.86705,4.39606 -2.00454,6.21665 -1.13749,1.8206 -2.85573,3.10097 -5.46746,4.58386 -2.61172,1.4829 -6.11416,3.16776 -6.2238,4.02768 -0.10966,0.85993 3.17368,0.8928 5.34735,0.43751 2.17367,-0.4553 3.2366,-1.39823 3.28705,-1.16241 0.0504,0.23582 -0.91001,1.65118 -2.61219,3.31136 -1.70219,1.66018 -4.14456,3.5628 -6.11659,4.8355 -1.97202,1.27269 -3.46994,1.91264 -2.24759,2.30908 1.22234,0.39645 5.16289,0.54732 7.51346,0.36174 2.35056,-0.1856 3.10799,-0.70802 2.77089,-0.10152 -0.33709,0.6065 -1.76886,2.34307 -3.52296,3.81463 -1.75409,1.47157 -3.82767,2.67716 -3.27132,2.96393 0.55635,0.28677 3.74222,-0.34707 5.86636,-1.16956 2.12416,-0.82249 3.18662,-1.83473 3.16553,-1.24676 -0.0211,0.58797 -1.12364,2.77382 -3.05114,4.51237 -1.92751,1.73855 -4.67535,3.02445 -4.5424,3.48578 0.13296,0.46135 3.14769,0.0974 5.62188,-0.70487 2.47419,-0.8023 4.40676,-2.04199 5.35593,-2.38343 0.94916,-0.34146 0.91516,0.21418 -0.71202,1.52985 -1.62719,1.31569 -4.84121,3.38564 -5.16149,4.19496 -0.32029,0.80931 2.2578,0.35502 4.46518,-0.49613 2.20736,-0.85114 4.04379,-2.09871 4.29647,-2.01455 0.2527,0.0841 -1.07923,1.49979 -2.97535,3.0926 -1.89613,1.59281 -4.35349,3.36001 -4.01624,3.61304 0.33724,0.25303 3.47033,-1.01047 5.66048,-2.08033 2.19014,-1.06985 3.43744,-1.94584 3.31993,-1.65996 -0.1175,0.2859 -1.60164,1.736 -2.73087,3.01683 -1.12923,1.28081 -1.9037,2.39225 -1.26249,2.39201 0.64122,-2.4e-4 2.69504,-1.11097 3.68882,-1.36401 0.99377,-0.25304 0.92658,0.35299 0.50471,1.30253 -0.42187,0.94954 -1.19627,2.23768 -2.79092,3.75601 -1.59465,1.51833 -4.00425,3.26069 -3.64021,4.07486 0.36405,0.81417 3.50309,0.69679 5.87209,-0.36602 2.36899,-1.06282 3.96702,-3.07002 4.56384,-3.26561 0.59681,-0.19558 0.19108,1.42233 -0.55047,3.15837 -0.74154,1.73606 -1.81839,3.58882 -2.59361,4.93701 -0.77521,1.3482 -1.24703,2.19035 -0.57191,2.0889 0.67513,-0.10145 2.4922,-1.14451 3.89042,-2.27333 1.39821,-1.12882 2.37662,-2.34311 2.4778,-1.82154 0.10118,0.52157 -0.67473,2.7817 -0.91076,4.97276 -0.23604,2.19105 0.068,4.31265 0.50613,5.84634 0.43815,1.5337 1.00973,2.47698 1.83583,2.0889 0.82611,-0.38806 1.90539,-2.1054 2.64651,-3.92473 0.74112,-1.81932 1.1447,-3.74169 1.38117,-3.64592 0.23645,0.0958 0.30556,2.20867 0.5333,4.27931 0.22775,2.07064 0.61382,4.09647 1.14382,6.08226 0.53,1.98579 1.20349,3.92823 2.29765,5.93357 1.09416,2.00534 2.60881,4.07237 3.01682,3.73171 0.40801,-0.34067 -0.29102,-3.08895 -0.13297,-5.80489 0.15806,-2.71593 1.17339,-5.39955 2.38344,-7.35904 1.21004,-1.9595 2.61359,-3.19504 3.04255,-3.11263 0.42897,0.0824 -0.11693,1.48288 -0.58477,2.99824 -0.46785,1.51536 -0.85488,3.14153 -1.12095,4.85123 -0.26605,1.70969 -0.40941,3.49885 -0.0429,6.36678 0.36656,2.86793 1.24216,6.80856 1.85728,6.80001 0.61512,-0.009 0.96897,-3.97132 1.78579,-7.17889 0.8168,-3.20758 2.09876,-5.6698 2.4778,-6.02364 0.37903,-0.35385 -0.36561,2.40371 -0.46326,3.61446 -0.51551,6.39172 0.79106,9.78907 1.33035,11.16962 0.53928,1.38054 1.09288,2.53081 2.0911,3.41837 0.6369,0.56627 0.39741,-0.52332 0.42634,-1.39481 0.1521,-4.5831 1.66636,-5.86282 1.84414,-5.91706 0.17779,-0.0542 0.16717,0.85274 0.18874,1.98024 0.0216,1.1275 0.0763,2.47461 0.17872,3.22986 0.10249,0.75525 0.25323,0.91649 0.39891,0.55475 0.14567,-0.36173 0.2857,-1.24555 0.53903,-2.32338 0.2533,-1.07783 0.62019,-2.35166 0.84642,-2.88528 0.22623,-0.53363 0.31317,-0.32937 0.45895,0.36173 0.14579,0.6911 0.34972,1.86443 0.50615,3.14265 0.15641,1.2782 0.26479,2.65852 0.44323,3.25702 0.17844,0.59849 5.68564,-4.31068 4.76401,-14.59371 -0.10844,-1.20983 -0.8423,-3.96831 -0.46325,-3.61446 0.37905,0.35384 1.66101,2.81606 2.4778,6.02364 0.8168,3.20757 1.17068,7.17032 1.78578,7.17889 0.61513,0.009 1.49073,-3.93208 1.85728,-6.80001 0.36653,-2.86793 0.22319,-4.65709 -0.0428,-6.36678 -0.26607,-1.7097 -0.65311,-3.33587 -1.12095,-4.85123 -0.46784,-1.51536 -1.01375,-2.91582 -0.58478,-2.99824 0.42897,-0.0824 1.83252,1.15313 3.04256,3.11263 1.21004,1.95949 2.22538,4.64311 2.38343,7.35904 0.15806,2.71594 -0.54097,5.46422 -0.13296,5.80489 0.40801,0.34066 1.92267,-1.72637 3.01682,-3.73171 1.09418,-2.00534 1.76765,-3.94778 2.29766,-5.93357 0.52999,-1.98579 0.91607,-4.01162 1.14381,-6.08226 0.22775,-2.07064 0.29685,-4.18354 0.5333,-4.27931 0.23646,-0.0958 0.64004,1.8266 1.38117,3.64592 0.74112,1.81933 1.82041,3.53667 2.64651,3.92473 0.82611,0.38808 1.39768,-0.5552 1.83583,-2.0889 0.43814,-1.53369 0.74216,-3.65529 0.50613,-5.84634 -0.23603,-2.19106 -1.01194,-4.45119 -0.91076,-4.97276 0.10118,-0.52157 1.07959,0.69272 2.4778,1.82154 1.39821,1.12882 3.21529,2.17188 3.89042,2.27333 0.67512,0.10145 0.2033,-0.7407 -0.57191,-2.0889 -0.77522,-1.34819 -1.85207,-3.20095 -2.59361,-4.93701 -0.74155,-1.73604 -1.14728,-3.35395 -0.55047,-3.15837 0.59681,0.19559 2.19486,2.20279 4.56385,3.26561 2.36899,1.06281 5.50803,1.18019 5.87207,0.36602 0.36405,-0.81417 -2.04556,-2.55653 -3.6402,-4.07486 -1.59465,-1.51833 -2.36906,-2.80647 -2.79092,-3.75601 -0.42187,-0.94954 -0.48905,-1.55557 0.50471,-1.30253 0.99378,0.25304 3.0476,1.36377 3.68882,1.36401 0.64121,2.4e-4 -0.13327,-1.1112 -1.26249,-2.39201 -1.12924,-1.28083 -2.61337,-2.73093 -2.73087,-3.01683 -0.11751,-0.28589 1.1298,0.59011 3.31994,1.65996 2.19014,1.06986 5.32322,2.33336 5.66047,2.08033 0.33724,-0.25303 -2.12011,-2.02023 -4.01624,-3.61304 -1.89613,-1.59281 -3.22803,-3.00844 -2.97535,-3.0926 0.25269,-0.0841 2.08911,1.16341 4.29647,2.01455 2.20738,0.85115 4.78547,1.30544 4.46519,0.49613 -0.32028,-0.80932 -3.5343,-2.87927 -5.16149,-4.19496 -1.62719,-1.31567 -1.66119,-1.87131 -0.71203,-1.52985 0.94916,0.34144 2.88174,1.58113 5.35593,2.38343 2.4742,0.8023 5.48892,1.16622 5.62187,0.70487 0.13296,-0.46133 -2.61488,-1.74723 -4.54238,-3.48578 -1.92751,-1.73855 -3.03006,-3.9244 -3.05114,-4.51237 -0.0211,-0.58797 1.04137,0.42427 3.16552,1.24676 2.12415,0.82249 5.31002,1.45633 5.86636,1.16956 0.55634,-0.28677 -1.51723,-1.49236 -3.27133,-2.96393 -1.75408,-1.47156 -3.18586,-3.20813 -3.52295,-3.81463 -0.3371,-0.6065 0.42033,-0.0841 2.77089,0.10152 2.35057,0.18558 6.29113,0.0347 7.51347,-0.36174 1.22235,-0.39644 -0.27559,-1.03639 -2.24761,-2.30908 -1.97202,-1.2727 -4.41439,-3.17532 -6.11657,-4.8355 -1.70219,-1.66018 -2.66263,-3.07554 -2.61219,-3.31136 0.0504,-0.23582 1.11337,0.70711 3.28704,1.16241 2.17367,0.45529 5.45701,0.42242 5.34736,-0.43751 -0.10965,-0.85992 -3.61209,-2.54478 -6.22381,-4.02768 -2.61173,-1.48289 -4.32997,-2.76326 -5.46746,-4.58386 -1.13749,-1.82059 -1.69278,-4.17732 -2.00454,-6.21665 -0.31176,-2.03933 -0.38019,-3.75556 -0.8693,-4.78403 -0.48911,-1.02847 -1.39753,-1.36613 -2.17326,-1.65281 -0.77573,-0.28668 -1.41626,-0.52234 -1.12952,-0.69058 0.28673,-0.16831 1.50183,-0.26878 2.51212,-0.0501 1.01028,0.21879 1.81842,0.75772 3.06543,1.23817 1.24699,0.48051 2.93132,0.90171 2.46779,-0.68342 -0.46351,-1.58514 -3.07209,-5.16864 -6.108,-7.0488 -3.03593,-1.88009 -6.48604,-2.04914 -8.3985,-2.31908 -1.91246,-0.26995 -2.28388,-0.64154 -2.056,-1.1381 0.22789,-0.49657 1.05278,-1.11927 2.24045,-1.42263 1.18768,-0.30336 2.73781,-0.28596 2.56073,-0.86788 -0.1771,-0.58191 -2.08007,-1.76027 -4.19496,-2.31622 -2.1149,-0.55596 -4.43953,-0.48883 -6.32675,-0.0844 -1.88722,0.40446 -3.33319,1.14354 -4.29505,1.29537 -0.96184,0.15181 -1.43485,-0.28535 -1.1481,-0.7735 0.28677,-0.48818 1.33288,-1.02824 2.74803,-1.58421 1.41514,-0.55595 3.20075,-1.12865 5.04566,-1.32253 1.84492,-0.19389 3.74826,-0.008 3.63021,-0.37888 -0.11805,-0.37108 -2.25621,-1.29802 -4.53954,-1.59278 -2.28332,-0.29479 -4.70618,0.0424 -6.19092,0.009 -1.48474,-0.0338 -2.02511,-0.43935 -1.41835,-0.67484 0.60678,-0.2355 2.3604,-0.30175 3.69168,-0.63768 1.33129,-0.33593 2.24128,-0.9408 3.08403,-1.81725 0.84275,-0.87645 1.61637,-2.02411 0.74777,-2.1275 -0.86859,-0.10339 -3.37708,0.8357 -4.94845,1.09521 -1.57137,0.2595 -2.19704,-0.16151 -3.21841,-0.4804 -1.02138,-0.31894 -2.43489,-0.53501 -3.78032,0.0143 -1.34545,0.54933 -2.62082,1.86294 -3.64736,2.60505 -1.02655,0.7421 -1.41371,0.65293 -1.31397,0.22018 0.46207,-2.00485 1.73844,-1.5086 2.15753,-2.72944 -1.13657,-1.67836 -4.93193,2.874 -2.90959,-2.76804 -2.91888,-0.38047 -4.05007,2.85636 -4.8169,2.66367 -0.82437,-0.20718 -1.46725,-3.93313 -4.07058,-3.98049 0.83412,3.39402 -0.11363,4.50507 -1.6142,4.3365 -1.50063,-0.16856 -3.42014,-0.74043 -3.50438,-0.25164 -0.0843,0.48879 1.66861,2.03855 2.15752,2.72944 0.48891,0.6909 -0.28742,0.52192 -1.31396,-0.22018 -1.02654,-0.74211 -2.30191,-2.05572 -3.64736,-2.60505 -1.34543,-0.54934 -2.75894,-0.33328 -3.78032,-0.0143 -1.02136,0.31889 -1.64705,0.7399 -3.21842,0.4804 -1.57137,-0.25951 -4.07986,-1.1986 -4.94844,-1.09521 z m 0.39318,29.15024 c -0.0967,0.26291 -0.19302,0.52679 -0.27594,0.79209 -0.46346,1.48282 -0.7842,2.91393 -0.82641,4.27931 -0.0421,1.36539 0.1939,2.66252 0.7249,3.80034 0.53098,1.13786 1.35598,2.11426 2.58645,2.64509 1.23049,0.53082 2.86519,0.6152 4.26359,0.39604 1.3984,-0.21914 2.56066,-0.74062 3.47007,-1.74289 0.9094,-1.00225 1.56831,-2.48679 1.86299,-3.96905 0.0951,-0.47821 0.14698,-0.95653 0.16299,-1.43549 0.81646,-0.14936 0.41772,-1.13827 3.31028,-2.46278 5.71901,-2.61876 11.67487,-1.66596 15.11854,0.21912 1.15837,0.6341 2.4487,2.0943 3.26515,2.24366 0.0161,0.47896 0.0679,0.95728 0.163,1.43549 0.29468,1.48226 0.95358,2.9668 1.863,3.96905 0.90941,1.00227 2.07165,1.52375 3.47005,1.74289 1.39841,0.21916 3.0331,0.13478 4.26359,-0.39604 1.23048,-0.53083 2.05547,-1.50722 2.58646,-2.64509 0.53098,-1.13783 0.76706,-2.43495 0.7249,-3.80034 -0.0421,-1.36538 -0.36296,-2.79649 -0.82641,-4.27931 -0.0829,-0.2653 -0.17923,-0.52918 -0.27595,-0.79209 0.44978,0.066 0.89843,0.12874 1.32969,0.16871 1.81948,0.16854 3.33556,-0.0328 3.9762,1.12952 0.64065,1.16228 0.40425,3.68954 -0.32027,5.9307 -0.7245,2.24117 -1.9371,4.19472 -3.3571,5.53895 -1.42001,1.34423 -3.04523,2.07714 -4.65107,2.45635 -1.60583,0.37922 -3.1884,0.4048 -4.68393,0.0887 -1.49553,-0.31615 -2.90091,-0.97323 -3.95047,-1.60135 -1.04957,-0.62812 -1.74098,-1.22468 -2.36485,-2.10177 -0.62378,-0.87708 -1.17811,-2.03042 -1.48982,-3.23128 -0.3117,-1.20088 -0.37867,-2.44664 -1.01943,-3.33996 -0.64075,-0.89332 -1.85426,-1.43219 -3.26989,-1.71859 -2.27087,-0.39571 -3.82801,-0.47154 -6.02936,0 -1.41561,0.2864 -2.62915,0.82527 -3.26989,1.71859 -0.64075,0.89332 -0.70773,2.13908 -1.01943,3.33996 -0.3117,1.20086 -0.866,2.3542 -1.48983,3.23128 -0.62384,0.87709 -1.31528,1.47365 -2.36485,2.10177 -1.04956,0.62812 -2.45494,1.2852 -3.95046,1.60135 -1.49553,0.31615 -3.0781,0.29057 -4.68394,-0.0887 -1.60584,-0.37921 -3.23107,-1.11212 -4.65106,-2.45635 -1.42002,-1.34423 -2.63259,-3.29778 -3.35711,-5.53895 -0.72451,-2.24116 -0.9609,-4.76842 -0.32027,-5.9307 0.64064,-1.16228 2.15671,-0.96098 3.97621,-1.12952 0.43124,-0.0399 0.8799,-0.10278 1.32968,-0.16871 z m 8.57865,4.19638 c 0.0169,1.02706 -0.2197,1.87032 -0.64055,2.56073 -0.42083,0.69041 -1.02833,1.22977 -1.82009,1.48267 -0.79177,0.25292 -1.76872,0.21978 -2.57788,-0.11724 -0.80915,-0.337 -1.44922,-0.97777 -1.74433,-1.78721 -0.29511,-0.80944 -0.24497,-1.7845 -0.0171,-2.68655 0.22771,-0.90205 0.5885,-1.76888 1.13811,-2.30051 2.04254,3.10299 4.86241,2.42401 5.66187,2.84811 z m 33.56471,-2.75298 c 1.10669,-0.0149 1.48155,1.30333 1.70925,2.20538 0.22776,0.90205 0.27789,1.87711 -0.0171,2.68655 -0.29511,0.80944 -0.93518,1.45021 -1.74433,1.78721 -0.80916,0.33702 -1.78611,0.37016 -2.57787,0.11724 -0.79177,-0.2529 -1.39928,-0.79226 -1.82011,-1.48267 -0.42084,-0.69041 -0.65745,-1.53367 -0.64053,-2.56073 4.78526,-0.431 5.09072,-2.75298 5.09072,-2.75298 z m -21.23005,6.04433 c 0.65483,-0.0356 1.29921,0.0118 1.60278,0.16013 0.30356,0.14837 0.26804,0.39997 -0.0543,0.50757 -0.32241,0.1076 -0.92836,0.0711 -1.55416,0.19017 -0.62579,0.11908 -1.26826,0.39268 -1.54273,0.79208 -0.27446,0.39941 -0.17973,0.92358 -0.37031,1.13239 -0.19058,0.2088 -0.66615,0.10139 -0.845,-0.2688 -0.17884,-0.3702 -0.0601,-1.00011 0.11867,-1.41691 0.17889,-0.4168 0.41795,-0.62006 0.87074,-0.78066 0.45279,-0.16058 1.11953,-0.28031 1.77434,-0.31597 z m 3.80463,0 c 0.65482,0.0356 1.32159,0.15539 1.77436,0.31597 0.45284,0.1606 0.69181,0.36386 0.87072,0.78066 0.1787,0.4168 0.29751,1.04671 0.11868,1.41691 -0.17884,0.37019 -0.65438,0.4776 -0.845,0.2688 -0.19056,-0.20881 -0.0959,-0.73298 -0.37031,-1.13239 -0.27453,-0.3994 -0.91691,-0.67302 -1.54273,-0.79208 -0.62576,-0.1191 -1.23178,-0.0825 -1.55416,-0.19017 -0.32225,-0.1076 -0.35794,-0.3592 -0.0543,-0.50757 0.30358,-0.14835 0.94796,-0.19579 1.60278,-0.16013 z m -10.28008,7.04878 c 0.0501,-0.01 0.0996,-0.009 0.1487,0.004 0.39285,0.10749 0.77439,0.99127 0.78638,1.71716 0.0119,0.72589 -0.34579,1.29816 -0.71489,1.88158 -0.3691,0.58342 -0.75085,1.1803 -1.46552,1.47838 -0.71466,0.2981 -1.76301,0.29686 -1.78722,-0.39461 -0.0242,-0.69147 0.9764,-2.07131 1.67999,-3.09689 0.61561,-0.89738 1.00223,-1.52019 1.35256,-1.5899 z m 16.75553,0 c 0.35035,0.0697 0.73695,0.69253 1.35257,1.58991 0.70358,1.02558 1.70422,2.40541 1.67998,3.0969 -0.0242,0.69147 -1.07256,0.69269 -1.78722,0.39461 -0.71467,-0.29809 -1.09642,-0.89497 -1.46551,-1.47838 -0.3691,-0.58342 -0.72661,-1.1557 -0.71489,-1.88159 0.012,-0.72588 0.39356,-1.60967 0.78637,-1.71715 0.0491,-0.0136 0.0989,-0.0141 0.1487,-0.004 z m -13.78302,1.08092 c 0.0416,-0.0149 0.10631,0.10347 0.23734,0.34171 0.26205,0.47646 0.78678,1.43011 1.13238,3.24129 0.3456,1.8112 0.51231,4.47913 0.60765,7.26755 0.0953,2.78841 0.11878,5.69475 -0.0243,6.69563 -0.14309,1.00088 -0.45286,0.0954 -0.7149,-1.47695 -0.26203,-1.57234 -0.4766,-3.81248 -0.67914,-5.62331 -0.20253,-1.81083 -0.39288,-3.19418 -0.88074,-3.73027 -0.48785,-0.53611 -1.27439,-0.22566 -2.10892,0.19159 -0.83455,0.41722 -1.7156,0.94122 -2.80092,0.51185 -1.08532,-0.42937 -2.37075,-1.81066 -2.62078,-2.33482 -0.25003,-0.52417 0.53723,-0.19065 1.51413,0.0715 0.97685,0.26206 2.1443,0.45248 3.15694,0.15442 1.01262,-0.29807 1.87055,-1.08472 2.37057,-2.07317 0.50002,-0.98846 0.64345,-2.18129 0.71489,-2.77662 0.0357,-0.29768 0.0541,-0.44553 0.0958,-0.46039 z m 10.81052,0 c 0.0416,0.0148 0.06,0.16271 0.0958,0.46038 0.0713,0.59533 0.21491,1.78817 0.7149,2.77662 0.50005,0.98846 1.35792,1.7751 2.37056,2.07318 1.01264,0.29805 2.18009,0.10763 3.15694,-0.15442 0.97689,-0.26209 1.76416,-0.5956 1.51413,-0.0715 -0.25002,0.52417 -1.53546,1.90546 -2.62077,2.33483 -1.08533,0.42937 -1.9664,-0.0946 -2.80093,-0.51186 -0.83453,-0.41723 -1.62109,-0.72769 -2.10892,-0.19159 -0.48791,0.5361 -0.67819,1.91945 -0.88074,3.73028 -0.20249,1.81083 -0.41715,4.05098 -0.67915,5.6233 -0.26207,1.57233 -0.57177,2.47784 -0.71488,1.47696 -0.14289,-1.00088 -0.11964,-3.90722 -0.0243,-6.69564 0.0954,-2.78841 0.26206,-5.45635 0.60766,-7.26754 0.34559,-1.81118 0.87031,-2.76482 1.13238,-3.24129 0.13104,-0.23823 0.19562,-0.35658 0.23735,-0.34172 z m -20.35284,5.57183 c 0.24541,0.025 0.58855,0.33873 1.0709,1.10377 0.96469,1.5301 2.48941,4.86621 3.94332,6.84434 1.45391,1.97812 2.83552,2.5976 3.7646,4.12204 0.92907,1.52443 1.40679,3.95626 2.19327,6.4111 0.78648,2.45485 1.88218,4.93151 2.85955,6.31389 0.38678,0.54705 0.74223,0.92154 1.06804,1.30395 -7e-5,0.0386 7e-5,0.0714 0,0.11009 0.0151,-0.0182 0.032,-0.0376 0.0472,-0.0558 0.0153,0.0183 0.0334,0.0373 0.0486,0.0558 -8e-5,-0.0386 8e-5,-0.0714 0,-0.11009 0.32582,-0.38241 0.68122,-0.7569 1.06804,-1.30395 0.97735,-1.38238 2.07304,-3.85904 2.85955,-6.31389 0.78651,-2.45484 1.26423,-4.88667 2.19327,-6.4111 0.92911,-1.52444 2.31069,-2.14392 3.76459,-4.12204 1.45392,-1.97813 2.97864,-5.31424 3.94332,-6.84434 0.96469,-1.53008 1.37092,-1.25436 1.55703,-0.47611 0.1861,0.77825 0.15241,2.06076 0.48898,2.83525 0.33658,0.77449 1.04345,1.04388 2.1132,1.51555 1.06977,0.47169 2.50413,1.14654 3.37999,1.97167 0.87586,0.82511 1.19618,1.80267 1.01944,2.89814 -0.17675,1.09548 -0.85115,2.30936 -2.14037,3.51439 -1.28924,1.20503 -3.19233,2.40109 -4.89413,3.68167 -1.70179,1.28057 -3.20246,2.64562 -4.21068,3.80035 -1.00822,1.15472 -1.52581,2.10082 -1.92734,3.0497 -0.40152,0.94887 -0.68714,1.90057 -0.80639,1.49554 -0.11925,-0.40503 -0.072,-2.16779 0.40463,-3.59731 0.47662,-1.42952 1.38229,-2.5261 2.64508,-3.57443 1.26277,-1.04834 2.88342,-2.04937 4.28932,-3.00254 1.40591,-0.95315 2.59516,-1.85653 2.83382,-2.42918 0.23862,-0.57265 -0.4755,-0.81191 -0.71346,-1.52699 -0.23797,-0.71508 5e-4,-1.90571 -0.40462,-1.95308 -0.40516,-0.0474 -1.45313,1.04761 -2.14467,0.95223 -0.69152,-0.0954 -1.02536,-1.38249 -1.74004,-0.92935 -0.71468,0.45313 -1.81111,2.64568 -2.93103,4.81405 -1.11993,2.16837 -2.26408,4.31384 -2.93105,6.00505 -0.66696,1.6912 -0.8569,2.93174 -0.95222,4.95703 -0.0953,2.02529 -0.0954,4.83812 -0.35744,6.95871 -0.262,2.12058 -0.78654,3.5496 -1.59706,4.47948 -0.81059,0.92988 -1.9064,1.3577 -2.43062,0.38032 -0.52421,-0.97738 -0.47617,-3.3562 -0.71488,-4.69252 -0.23872,-1.33632 -0.76356,-1.62177 -1.09664,-0.57334 -0.26727,0.84131 -0.4194,2.48017 -0.61481,3.8032 -0.1954,-1.32305 -0.34894,-2.96185 -0.61623,-3.8032 -0.33308,-1.04843 -0.85794,-0.76298 -1.09663,0.57334 -0.2387,1.33632 -0.19067,3.71514 -0.71489,4.69252 -0.52421,0.97738 -1.62004,0.54956 -2.43062,-0.38032 -0.81055,-0.92988 -1.335,-2.3589 -1.59706,-4.47948 -0.26204,-2.12059 -0.2621,-4.93342 -0.35744,-6.95871 -0.0953,-2.02529 -0.28525,-3.26583 -0.95223,-4.95703 -0.66697,-1.69121 -1.8111,-3.83668 -2.93104,-6.00505 -1.11992,-2.16837 -2.21635,-4.36092 -2.93104,-4.81405 -0.71467,-0.45314 -1.0485,0.83398 -1.74003,0.92935 -0.69152,0.0954 -1.73951,-0.9996 -2.14465,-0.95223 -0.40516,0.0473 -0.16666,1.238 -0.40464,1.95308 -0.23796,0.71508 -0.95208,0.95434 -0.71345,1.52699 0.23865,0.57265 1.4279,1.47603 2.83382,2.42918 1.40591,0.95317 3.02653,1.9542 4.28931,3.00254 1.26278,1.04833 2.16845,2.14491 2.64509,3.57443 0.4766,1.42952 0.52388,3.19228 0.40462,3.59731 -0.11926,0.40503 -0.40486,-0.54667 -0.80639,-1.49554 -0.40153,-0.94888 -0.91912,-1.89498 -1.92734,-3.0497 -1.00821,-1.15473 -2.50888,-2.51978 -4.21068,-3.80035 -1.7018,-1.28058 -3.60489,-2.47664 -4.89412,-3.68167 -1.28923,-1.20503 -1.96362,-2.41891 -2.14037,-3.51439 -0.17674,-1.09547 0.14357,-2.07303 1.01942,-2.89814 0.87587,-0.82513 2.31023,-1.49998 3.37999,-1.97167 1.06976,-0.47167 1.77664,-0.74106 2.11321,-1.51555 0.33657,-0.77449 0.30288,-2.057 0.48898,-2.83525 0.0931,-0.38913 0.24072,-0.65272 0.48613,-0.62766 z m -63.44338,58.48062 c -2.79583,-0.0606 -5.44978,1.33913 -7.15603,4.78259 -1.82001,3.67302 -2.56157,9.67205 -2.22469,15.83904 0.33697,6.167 1.75311,12.5033 4.58385,19.71516 2.83082,7.21184 7.07721,15.29987 9.97552,20.08547 2.89831,4.7856 4.44764,6.2682 4.34651,4.38082 -0.1011,-1.88736 -1.85381,-7.14493 -3.23557,-12.67208 -1.38178,-5.52715 -2.39198,-11.32139 -2.86385,-15.70322 -0.47186,-4.38182 -0.40499,-7.34758 0.67343,-7.95383 1.07843,-0.60625 3.16991,1.14763 3.70884,3.03398 0.53894,1.88636 -0.472,3.90786 -0.33743,7.14315 0.13457,3.2353 1.41501,7.68419 2.72944,10.48168 1.31444,2.79748 2.66273,3.94257 3.30278,5.59328 0.64004,1.6507 0.57172,3.80861 0.63911,7.31329 0.0674,3.50469 0.27021,8.35882 -0.57191,11.45821 -0.84211,3.09939 -2.72975,4.44821 -4.34795,3.36998 -1.6182,-1.07823 -2.96482,-4.58364 -5.05424,-9.2006 -2.08945,-4.61695 -4.92115,-10.34532 -7.58353,-16.20935 -2.66245,-5.86402 -5.15733,-11.86619 -6.67273,-14.22339 -1.51533,-2.35719 -2.05521,-1.07699 -2.96537,-2.02028 -0.91022,-0.94326 -2.19072,-4.11163 -3.77464,-6.90866 -1.58392,-2.79704 -3.4723,-5.2241 -4.88691,-5.6619 -1.41453,-0.43781 -2.35718,1.11132 -3.84037,0.13439 -1.48312,-0.97694 -3.50614,-4.48165 -6.57274,-8.12112 -3.06661,-3.63947 -7.17755,-7.41466 -10.98491,-9.5037 -3.80744,-2.08904 -7.31291,-2.49341 -10.41304,-0.47183 -3.10006,2.02158 -5.79757,6.4707 -6.03366,14.28917 -0.23615,7.81845 1.98809,19.00697 5.32445,26.99413 3.33637,7.98717 7.78552,12.77196 9.65384,14.20624 1.86825,1.43427 1.15612,-0.48091 0.20446,-3.63163 -0.95166,-3.15072 -2.14277,-7.53545 -2.83382,-12.15879 -0.69112,-4.62337 -0.88167,-9.47844 -0.85781,-12.29321 0.0242,-2.81476 0.26215,-3.57823 1.21527,-3.38714 0.95313,0.1911 2.62204,1.33597 3.88467,2.36056 1.26306,1.0246 2.12037,1.92926 2.26333,4.35939 0.14297,2.43011 -0.42934,6.38646 0.83358,10.24718 1.26286,3.86073 4.36101,7.62435 6.98305,9.62668 2.62211,2.00232 4.76583,2.24145 6.88721,2.21758 2.12133,-0.0239 4.21841,-0.31015 5.79055,0.90504 1.57214,1.2152 2.62057,3.93055 3.90758,5.81347 1.28701,1.88292 2.81164,2.93274 4.26504,4.93414 1.45333,2.00142 2.83535,4.95567 4.6225,8.45855 1.78721,3.50288 3.97946,7.55487 5.93351,10.55745 1.95408,3.00258 3.67016,4.95624 3.45578,5.69479 -0.21439,0.73856 -2.3583,0.26179 -4.551,-1.52557 -2.19269,-1.78735 -4.43274,-4.88504 -6.38679,-7.43482 -1.95405,-2.54978 -3.62165,-4.5511 -5.26582,-6.19521 -1.64409,-1.64411 -3.26528,-2.93089 -3.88473,-2.5021 -0.61946,0.42877 -0.23879,2.57329 -0.6677,2.78805 -0.42891,0.21477 -1.66826,-1.5019 -3.78892,-3.38427 -2.12066,-1.88237 -5.12446,-3.93205 -6.52976,-4.36082 -1.40531,-0.42876 -1.21432,0.7621 -0.80928,2.12036 0.40505,1.35826 1.02406,2.88365 -0.59618,2.24046 -1.6203,-0.64319 -5.48074,-3.45457 -8.69734,-5.38453 -3.2166,-1.92997 -5.7926,-2.98007 -7.19746,-3.00396 -1.40494,-0.0239 -1.64249,0.97706 -3.47722,0.88217 -1.83479,-0.0949 -5.26786,-1.28677 -9.05619,-1.50126 -3.7884,-0.21449 -7.93595,0.54899 -11.00929,2.02599 -3.07333,1.477 -5.07504,3.6695 -6.05217,6.33819 -0.97714,2.66868 -0.92978,5.81435 0.0227,9.43651 0.95312,3.62216 2.81178,7.72154 6.36249,12.20169 3.5507,4.48015 8.79376,9.34003 13.63147,12.89085 4.83771,3.55083 9.26812,5.79061 12.20025,7.0302 2.93214,1.23957 4.36167,1.47794 3.38431,0.0243 -0.97728,-1.45364 -4.36166,-4.599 -7.26898,-7.72079 -2.90732,-3.12178 -5.33711,-6.21916 -7.12455,-9.22204 -1.78736,-3.00287 -2.93045,-5.90964 -3.69316,-8.10252 -0.76272,-2.19289 -1.14411,-3.66972 -0.21442,-4.5038 0.92977,-0.83406 3.17305,-1.02449 4.31504,-0.85786 1.14199,0.16663 1.18957,0.69053 1.61848,2.40631 0.4289,1.71576 1.2381,4.62308 3.02546,7.17318 1.78736,2.55009 4.55178,4.7414 7.62637,5.90925 3.07459,1.16785 6.45685,1.31135 8.93614,0.88218 2.47928,-0.42918 4.04996,-1.42929 5.05711,-2.39774 1.00715,-0.96844 1.4471,-1.90368 2.71223,-2.30336 1.26511,-0.39968 3.35415,-0.26456 5.54472,0.20731 2.19056,0.47187 4.48252,1.28098 6.43679,3.06687 1.9542,1.78589 3.57223,4.54894 5.35879,6.26813 1.78655,1.71919 3.73986,2.39314 5.32452,2.69655 1.58473,0.30343 2.79684,0.23535 4.5152,1.38117 1.71831,1.14581 3.94371,3.50438 6.23525,6.16661 2.29155,2.66224 4.65,5.62905 6.70565,8.29126 2.05563,2.66222 3.80818,5.02149 5.49318,7.14458 1.68499,2.1231 3.30399,4.01119 3.74173,5.39168 0.43773,1.3805 -0.30364,2.25728 -0.80926,3.63878 -0.50561,1.38149 -0.77536,3.26988 -1.65139,3.91043 -0.87605,0.64055 -2.35929,0.0328 -4.38082,0.63911 -2.02154,0.60633 -4.58385,2.42709 -6.06653,4.48234 -1.48269,2.05525 -1.88723,4.34804 -1.8873,6.06654 -7e-5,1.71848 0.40492,2.86368 -0.50472,3.09975 -0.90964,0.23605 -3.13499,-0.43797 -6.10084,-2.66224 -2.96591,-2.22429 -6.67181,-5.99836 -9.30066,-10.98639 -2.62877,-4.98802 -4.17924,-11.18586 -5.05572,-15.06267 -0.87647,-3.87682 -1.07779,-5.42775 -1.92015,-3.64164 -0.84228,1.78612 -2.32519,6.91013 -2.6623,13.41415 -0.3371,6.50402 0.47137,14.38917 3.74031,21.76974 3.26887,7.38056 8.99742,14.25394 14.12046,18.23105 5.12305,3.97712 9.63604,5.05602 12.80507,5.3931 3.16902,0.33711 4.98846,-0.0674 6.94298,0.16872 1.95452,0.23604 4.04462,1.11195 6.57267,0.60623 2.52805,-0.50572 5.4918,-2.39281 7.7165,-4.34795 2.22467,-1.95513 3.7077,-3.97715 4.24642,-3.7746 0.53872,0.20254 0.13467,2.62733 0.47183,3.26847 0.33715,0.64113 1.41505,-0.5037 2.49353,-2.18899 1.07847,-1.6853 2.15662,-3.91031 3.26846,-4.34795 1.11184,-0.43764 2.25745,0.91031 2.96535,-0.0672 0.7079,-0.9775 0.97799,-4.28013 0.97797,-8.25694 -4e-5,-3.97681 -0.26938,-8.62711 -1.01086,-12.46907 -0.74147,-3.84194 -1.95431,-6.87401 -3.43717,-10.31152 -1.48286,-3.43752 -3.2361,-7.28 -4.98848,-10.31296 -1.75242,-3.03298 -3.5048,-5.25707 -5.4932,-9.335 -1.9884,-4.07795 -4.21185,-10.00777 -5.69479,-15.09698 -1.48293,-5.08923 -2.22378,-9.33458 -2.0889,-13.34552 0.13488,-4.01093 1.14453,-7.78416 1.81868,-10.75047 0.67414,-2.96631 1.01245,-5.12402 0.64196,-5.76342 -0.3705,-0.63941 -1.44862,0.23583 -1.01085,-2.35913 0.43776,-2.59496 2.3932,-8.66739 2.96536,-11.46107 0.57214,-2.79368 -0.2357,-2.32151 -0.16872,-4.10775 0.067,-1.78623 1.01034,-5.83011 0.97654,-9.09908 -0.0339,-3.26896 -1.04494,-5.76233 -2.05602,-8.22263 -1.01107,-2.46029 -2.02201,-4.88576 -3.13406,-6.77284 -1.11207,-1.88707 -2.32559,-3.235 -3.4715,-6.43684 -1.14591,-3.20185 -2.22424,-8.25735 -4.54954,-13.21112 -2.32531,-4.95377 -5.89744,-9.80707 -9.23348,-13.17679 -3.33604,-3.36972 -6.43657,-5.2565 -9.43508,-5.52609 -0.1874,-0.0168 -0.37553,-0.0274 -0.56191,-0.0315 z m 156.7819,0 c -0.18591,0.004 -0.37358,0.0146 -0.56047,0.0315 -2.99851,0.26959 -6.09903,2.15637 -9.43508,5.52609 -3.33604,3.36972 -6.90817,8.22303 -9.23348,13.17679 -2.3253,4.95377 -3.40362,10.00928 -4.54953,13.21112 -1.14592,3.20184 -2.35944,4.54977 -3.4715,6.43684 -1.11206,1.88709 -2.12299,4.31255 -3.13407,6.77285 -1.01107,2.46029 -2.02219,4.95366 -2.05602,8.22262 -0.0339,3.26898 0.90956,7.31286 0.97654,9.09909 0.067,1.78623 -0.74085,1.31406 -0.16871,4.10774 0.57215,2.79368 2.52759,8.86611 2.96535,11.46107 0.43777,2.59497 -0.64035,1.71972 -1.01085,2.35913 -0.37049,0.63941 -0.0322,2.79711 0.64197,5.76342 0.67413,2.96631 1.68379,6.73954 1.81867,10.75047 0.13489,4.01094 -0.60597,8.2563 -2.0889,13.34552 -1.48294,5.08922 -3.70638,11.01903 -5.69478,15.09698 -1.98841,4.07794 -3.74079,6.30202 -5.49321,9.335 -1.7524,3.03297 -3.50562,6.87544 -4.98847,10.31296 -1.48287,3.43752 -2.6957,6.46958 -3.43718,10.31153 -0.74147,3.84195 -1.01082,8.49225 -1.01085,12.46906 -3e-5,3.97681 0.27006,7.27944 0.97796,8.25695 0.7079,0.9775 1.85352,-0.37044 2.96535,0.0672 1.11186,0.43764 2.18999,2.66265 3.26847,4.34794 1.07848,1.6853 2.15638,2.83013 2.49352,2.18899 0.33716,-0.64114 -0.0669,-3.06592 0.47183,-3.26847 0.53872,-0.20254 2.02175,1.81948 4.24643,3.77461 2.22469,1.95513 5.18844,3.84222 7.7165,4.34794 2.52804,0.50572 4.61814,-0.37018 6.57266,-0.60622 1.95452,-0.23607 3.77396,0.16838 6.94299,-0.16872 3.16903,-0.33709 7.68202,-1.41599 12.80505,-5.3931 5.12304,-3.97712 10.85159,-10.85049 14.12046,-18.23106 3.26894,-7.38056 4.07739,-15.26572 3.74028,-21.76974 -0.3371,-6.50401 -1.81995,-11.62803 -2.66224,-13.41414 -0.84236,-1.78612 -1.0437,-0.23518 -1.92017,3.64163 -0.87649,3.87682 -2.42692,10.07465 -5.05569,15.06267 -2.62884,4.98803 -6.3348,8.76211 -9.30068,10.98639 -2.96585,2.22428 -5.19122,2.8983 -6.10085,2.66224 -0.90964,-0.23606 -0.50464,-1.38126 -0.50471,-3.09975 -8e-5,-1.7185 -0.40462,-4.01128 -1.8873,-6.06653 -1.48268,-2.05525 -4.045,-3.87602 -6.06653,-4.48235 -2.02154,-0.60631 -3.50478,0.002 -4.38083,-0.63911 -0.87603,-0.64055 -1.14578,-2.52893 -1.65139,-3.91043 -0.50562,-1.3815 -1.247,-2.25828 -0.80926,-3.63878 0.43774,-1.38048 2.05674,-3.26857 3.74173,-5.39167 1.685,-2.12309 3.43756,-4.48236 5.49319,-7.14458 2.05564,-2.66222 4.41409,-5.62903 6.70563,-8.29127 2.29155,-2.66223 4.51694,-5.0208 6.23525,-6.16661 1.71833,-1.14582 2.9305,-1.07773 4.51523,-1.38117 1.58466,-0.30341 3.53793,-0.97735 5.32448,-2.69655 1.78655,-1.71918 3.40461,-4.48224 5.35879,-6.26813 1.95427,-1.78588 4.24628,-2.59499 6.43685,-3.06686 2.19057,-0.47187 4.27955,-0.607 5.54467,-0.20732 1.26511,0.39968 1.70513,1.33492 2.71228,2.30336 1.00715,0.96846 2.57782,1.96857 5.0571,2.39774 2.4793,0.42917 5.86151,0.28568 8.93609,-0.88217 3.07459,-1.16785 5.83906,-3.35917 7.62642,-5.90926 1.78736,-2.5501 2.5965,-5.45741 3.0254,-7.17318 0.4289,-1.71577 0.47652,-2.23968 1.61851,-2.4063 1.14199,-0.16664 3.38529,0.0238 4.31506,0.85786 0.92969,0.83408 0.54825,2.3109 -0.21447,4.50379 -0.76272,2.19288 -1.90575,5.09965 -3.6931,8.10253 -1.78744,3.00287 -4.21726,6.10026 -7.12457,9.22204 -2.90731,3.12179 -6.29169,6.26714 -7.26898,7.72078 -0.97735,1.45364 0.45216,1.21527 3.38429,-0.0243 2.93212,-1.23959 7.36254,-3.47938 12.20025,-7.03021 4.83772,-3.55082 10.08077,-8.41069 13.63147,-12.89085 3.55071,-4.48014 5.40937,-8.57953 6.36249,-12.20168 0.95291,-3.62217 0.99859,-6.76784 0.0214,-9.43651 -0.97713,-2.66869 -2.97889,-4.8612 -6.05224,-6.33819 -3.07334,-1.47701 -7.22086,-2.24049 -11.00925,-2.02599 -3.78834,0.21449 -7.22139,1.40637 -9.05619,1.50125 -1.83472,0.0949 -2.07227,-0.90603 -3.47721,-0.88217 -1.40487,0.0239 -3.98088,1.07399 -7.1975,3.00397 -3.2166,1.92995 -7.077,4.74134 -8.6973,5.38452 -1.62024,0.64319 -1.00126,-0.88219 -0.59622,-2.24045 0.40503,-1.35826 0.59605,-2.54913 -0.80926,-2.12036 -1.4053,0.42877 -4.40911,2.47844 -6.52978,4.36081 -2.12066,1.88238 -3.36,3.59905 -3.7889,3.38427 -0.4289,-0.21476 -0.0482,-2.35927 -0.6677,-2.78805 -0.61946,-0.42878 -2.2406,0.85799 -3.8847,2.5021 -1.64417,1.64411 -3.31181,3.64543 -5.26586,6.19521 -1.95404,2.54978 -4.19411,5.64747 -6.3868,7.43483 -2.1927,1.78735 -4.33657,2.26413 -4.55098,1.52556 -0.21438,-0.73855 1.50175,-2.69221 3.45578,-5.69478 1.95404,-3.00258 4.14635,-7.05457 5.93356,-10.55746 1.78714,-3.50288 3.16913,-6.45713 4.62246,-8.45855 1.4534,-2.0014 2.97801,-3.05122 4.26501,-4.93414 1.28701,-1.88292 2.33544,-4.59827 3.90758,-5.81347 1.57213,-1.21518 3.66926,-0.9289 5.79059,-0.90503 2.12139,0.0239 4.2651,-0.21527 6.88721,-2.21759 2.62204,-2.00233 5.72017,-5.76594 6.98302,-9.62667 1.26292,-3.86072 0.69059,-7.81708 0.83356,-10.24719 0.14298,-2.43012 1.00048,-3.33479 2.26333,-4.35938 1.26285,-1.02459 2.93158,-2.16947 3.8847,-2.36056 0.95312,-0.19109 1.19115,0.57237 1.21531,3.38713 0.0239,2.81477 -0.16674,7.66985 -0.85787,12.29321 -0.69104,4.62335 -1.88215,9.00808 -2.83381,12.15879 -0.95165,3.15072 -1.66379,5.06591 0.20446,3.63163 1.86832,-1.43427 6.31747,-6.21907 9.65384,-14.20624 3.33637,-7.98716 5.56063,-19.17567 5.32448,-26.99413 -0.23609,-7.81846 -2.93359,-12.26759 -6.03365,-14.28917 -3.10013,-2.02158 -6.60561,-1.61721 -10.41305,0.47183 -3.80736,2.08904 -7.91835,5.86424 -10.98495,9.5037 -3.06661,3.63947 -5.08956,7.14419 -6.57268,8.12112 -1.4832,0.97694 -2.42584,-0.5722 -3.84037,-0.13439 -1.4146,0.4378 -3.30304,2.86487 -4.88697,5.6619 -1.58392,2.79704 -2.86437,5.9654 -3.77461,6.90867 -0.91015,0.94328 -1.45001,-0.33692 -2.96534,2.02027 -1.51541,2.3572 -4.01031,8.35938 -6.67276,14.22339 -2.66238,5.86403 -5.49408,11.59241 -7.58353,16.20935 -2.08943,4.61697 -3.43605,8.12237 -5.05424,9.20061 -1.61821,1.07822 -3.50583,-0.27059 -4.34795,-3.36998 -0.84211,-3.0994 -0.63926,-7.95353 -0.57191,-11.45822 0.0674,-3.50468 -7.2e-4,-5.66259 0.63911,-7.31329 0.64005,-1.6507 1.98834,-2.7958 3.30278,-5.59327 1.31444,-2.79749 2.59486,-7.24639 2.72944,-10.48168 0.13456,-3.2353 -0.87637,-5.2568 -0.33743,-7.14316 0.53893,-1.88635 2.6304,-3.64023 3.70884,-3.03398 1.07843,0.60626 1.14529,3.57201 0.67342,7.95383 -0.47187,4.38184 -1.48207,10.17607 -2.86384,15.70323 -1.38177,5.52715 -3.13448,10.78471 -3.23557,12.67208 -0.10113,1.88737 1.44819,0.40477 4.34651,-4.38083 2.89831,-4.7856 7.14471,-12.87362 9.97553,-20.08547 2.83074,-7.21185 4.2469,-13.54816 4.58385,-19.71515 0.3369,-6.167 -0.40471,-12.16602 -2.22472,-15.83904 -1.70596,-3.44288 -4.35929,-4.84263 -7.1546,-4.7826 z M 440.17181,730.86245 c -3.28817,1.12691 -6.68381,2.39961 -9.97983,3.85468 -4.26727,1.88382 -8.34429,4.04904 -12.19595,6.43255 2.28706,4.09825 5.33638,7.6737 9.57232,10.14996 0.75464,-5.05939 4.88423,-11.33803 10.81911,-12.54913 2.71462,0.26076 3.77516,-1.76719 4.19637,-4.19067 -0.74996,-1.24533 -1.56413,-2.47608 -2.41202,-3.69739 z m 119.65638,0 c -0.84789,1.22131 -1.66207,2.45206 -2.41204,3.69739 0.42121,2.42346 1.48177,4.45143 4.1964,4.19067 5.93487,1.2111 10.06444,7.48974 10.8191,12.54913 4.23593,-2.47626 7.28528,-6.05171 9.57233,-10.14996 -3.85165,-2.38351 -7.92869,-4.54873 -12.19597,-6.43255 -3.29599,-1.45507 -6.69165,-2.72777 -9.97982,-3.85468 z m -156.01266,20.94763 c -0.0593,0.0541 -0.12079,0.10735 -0.18016,0.16156 -7.44804,6.80765 -13.31062,14.42225 -18.29826,19.07318 -4.9877,4.65093 -9.09982,6.33607 -9.43648,7.01019 -0.33667,0.67411 3.10086,0.33695 3.57295,1.14524 0.4721,0.80831 -2.02271,2.76401 -5.08997,5.39311 -3.06734,2.62912 -6.70597,5.93025 -11.22232,8.35704 -4.51635,2.4268 -9.90617,3.97704 -11.35525,5.05568 -1.44908,1.07864 1.04316,1.68431 5.22153,1.68427 4.17828,-4e-5 10.0435,-0.60651 15.63742,-2.19041 5.59392,-1.5839 10.92005,-4.14497 16.34523,-7.81801 5.42525,-3.67304 10.95183,-8.45971 14.92822,-12.43617 3.97639,-3.97646 6.40363,-7.1441 7.54921,-8.22263 0.10204,-0.0961 0.18161,-0.15538 0.26309,-0.21876 -3.66695,-5.07415 -6.35231,-10.88714 -7.93521,-16.99429 z m 192.36895,0 c -1.58289,6.10715 -4.26829,11.92014 -7.93524,16.99429 0.0815,0.0634 0.16103,0.12269 0.26307,0.21876 1.14558,1.07853 3.57283,4.24617 7.54921,8.22263 3.9764,3.97646 9.50302,8.76313 14.92828,12.43617 5.42518,3.67304 10.75126,6.23411 16.34517,7.81801 5.59392,1.5839 11.45916,2.19037 15.63745,2.19041 4.17836,4e-5 6.67062,-0.60563 5.22153,-1.68427 -1.44908,-1.07864 -6.83892,-2.62888 -11.35526,-5.05568 -4.51635,-2.42679 -8.15496,-5.72792 -11.2223,-8.35704 -3.06726,-2.6291 -5.56209,-4.5848 -5.09,-5.39311 0.4721,-0.80829 3.90968,-0.47113 3.57301,-1.14524 -0.33667,-0.67412 -4.4488,-2.35926 -9.43651,-7.01019 -4.98764,-4.65093 -10.85021,-12.26553 -18.29826,-19.07318 -0.0593,-0.0541 -0.12085,-0.10747 -0.18015,-0.16156 z"
       id="path48" />
  </g>
</svg>
